<svg width="119" height="46" viewBox="0 0 119 46" fill="none" xmlns="http://www.w3.org/2000/svg">
<g clip-path="url(#clip0_1199_1014)">
<path fill-rule="evenodd" clip-rule="evenodd" d="M44.3702 35.6009H39.4742V33.1496C38.1525 34.9608 36.2411 35.8651 33.7401 35.8624C31.4486 35.8624 29.607 35.146 28.2155 33.7134C26.7514 32.21 26.022 30.155 26.0274 27.5485V16.1094H30.8911V26.854C30.8911 30.0733 32.3149 31.6816 35.1625 31.6789C38.0101 31.6762 39.4474 30.0679 39.4742 26.854V16.1094H44.3702V35.6254V35.6009Z" fill="white"/>
<path fill-rule="evenodd" clip-rule="evenodd" d="M60.8853 24.8244C60.8853 21.6051 59.4615 19.9954 56.6139 19.9954C53.7207 19.9954 52.274 21.6051 52.274 24.8244V35.6017H47.4062V16.0857H52.274V18.5369C53.6441 16.7312 55.5783 15.8269 58.0767 15.8242C60.3736 15.8242 62.2165 16.5405 63.6053 17.9732C65.0399 19.4766 65.7571 21.5438 65.7571 24.1748V35.614H60.8853V24.8244Z" fill="white"/>
<path fill-rule="evenodd" clip-rule="evenodd" d="M68.3912 25.7692C68.3912 22.7923 69.2469 20.3629 70.9581 18.4809C71.741 17.6007 72.7023 16.9025 73.7762 16.4343C74.8501 15.9661 76.0112 15.7388 77.1798 15.7681C78.5316 15.7466 79.868 16.0608 81.0725 16.6833C82.0603 17.1937 82.9077 17.9447 83.5386 18.869V16.0827H88.4386V35.7418C88.4386 38.5117 87.6327 40.7546 86.0208 42.4704C84.3096 44.3007 81.9348 45.2158 78.8965 45.2158C76.1644 45.2158 73.9293 44.5703 72.1912 43.2793C71.3401 42.6758 70.6307 41.8895 70.1132 40.9766C69.5958 40.0636 69.283 39.0463 69.1972 37.9969H74.0327C74.57 39.9443 76.1456 40.918 78.7595 40.918C79.3732 40.9512 79.9873 40.86 80.5657 40.6495C81.1442 40.439 81.6754 40.1136 82.1282 39.6924C83.055 38.8017 83.5185 37.4876 83.5185 35.7499V32.7185C82.8812 33.6466 82.0361 34.4082 81.0523 34.941C79.4088 35.8223 77.5228 36.124 75.6915 35.7985C73.8602 35.4731 72.1878 34.539 70.938 33.1434C69.2267 31.2369 68.3711 28.7856 68.3711 25.7897L68.3912 25.7692ZM83.5386 25.8428C83.57 25.0637 83.4467 24.2861 83.1761 23.5563C82.9054 22.8264 82.4929 22.1591 81.963 21.5939C81.0277 20.6504 79.7639 20.1177 78.4445 20.1108C77.1251 20.1039 75.856 20.6234 74.9112 21.5572C73.8662 22.6112 73.345 24.0193 73.3477 25.7815C73.3151 26.5677 73.4365 27.3527 73.7048 28.0911C73.9732 28.8295 74.3832 29.5066 74.9112 30.0834C75.3582 30.5718 75.902 30.9588 76.5068 31.2193C77.1117 31.4798 77.764 31.6079 78.421 31.595C79.0804 31.6118 79.7359 31.4889 80.3458 31.2343C80.9557 30.9796 81.5065 30.5988 81.963 30.1161C82.4922 29.5485 82.9034 28.8788 83.172 28.1467C83.4406 27.4147 83.5612 26.6353 83.5265 25.855L83.5386 25.8428Z" fill="white"/>
<path fill-rule="evenodd" clip-rule="evenodd" d="M91.625 9.53125H96.4928V35.6003H91.625V9.53125Z" fill="white"/>
<path fill-rule="evenodd" clip-rule="evenodd" d="M108.811 19.8178C106.173 19.8178 104.655 21.215 104.257 24.0095H113.397C113.404 23.4266 113.283 22.8493 113.043 22.3195C112.803 21.7896 112.451 21.3203 112.01 20.9454C111.118 20.1821 109.978 19.7804 108.811 19.8178ZM117.954 29.4717C117.438 31.2965 116.354 32.9031 114.863 34.0514C113.152 35.3192 111.075 35.9759 108.956 35.9185C106.132 35.9185 103.828 35.002 102.041 33.169C100.212 31.3142 99.2969 28.8725 99.2969 25.8438C99.2969 22.8152 100.201 20.3639 102.009 18.4901C103.768 16.6789 106.084 15.7746 108.956 15.7773C111.76 15.7773 114.044 16.6584 115.806 18.4206C117.569 20.1828 118.448 22.5183 118.446 25.4271C118.451 26.0644 118.406 26.7012 118.309 27.3309H104.225C104.478 30.3269 106.017 31.8249 108.843 31.8249C109.719 31.8532 110.581 31.6063 111.313 31.1181C111.922 30.711 112.404 30.1373 112.703 29.4635L117.954 29.4717Z" fill="white"/>
<path fill-rule="evenodd" clip-rule="evenodd" d="M16.6786 8.01204C20.5316 8.07831 24.3356 8.89958 27.881 10.4306C27.2568 8.89993 26.204 7.58816 24.8526 6.65736C23.5013 5.72657 21.9106 5.21752 20.2771 5.19311C20.2771 5.19311 25.0159 2.04324 28.1227 1.54891C28.1227 1.54891 22.0783 -3.09621 17.005 3.70193C17.005 3.70193 9.97332 -2.9287 2.29286 3.04009C2.29286 3.04009 7.35809 3.04009 11.7746 4.86218C11.7746 4.86218 1.64006 4.76822 0 15.3045C0 15.3045 6.54814 9.99347 11.4522 8.84138C11.4522 8.84138 7.29765 13.8133 10.5697 18.7853C10.5697 18.7853 13.2454 10.1651 16.6786 8.01204Z" fill="url(#paint0_linear_1199_1014)"/>
<path fill-rule="evenodd" clip-rule="evenodd" d="M14.3817 6.53764L15.8122 6.60301L15.784 7.31387C20.9823 10.9907 23.3476 20.1543 23.3476 26.1885V28.3211C23.3476 30.7151 22.6465 32.5781 21.2643 33.9222C19.8822 35.2663 18.1011 35.8954 15.8082 35.8954C13.5154 35.8954 11.6255 35.2254 10.2151 33.8854C8.80473 32.5454 8.07134 30.6171 8.05925 28.2026V27.3733H12.923C12.923 27.4059 12.923 28.2435 12.923 28.2761C12.9955 30.4387 13.9358 31.52 15.7437 31.52C17.5517 31.52 18.4543 30.4632 18.4516 28.3497V23.0795C18.4516 16.2405 17.8996 12.5841 14.3858 6.56624L14.3817 6.53764Z" fill="url(#paint1_linear_1199_1014)"/>
</g>
<defs>
<linearGradient id="paint0_linear_1199_1014" x1="14.0614" y1="0" x2="14.0614" y2="35.8954" gradientUnits="userSpaceOnUse">
<stop stop-color="#34DA4F"/>
<stop offset="1" stop-color="#29AB87"/>
</linearGradient>
<linearGradient id="paint1_linear_1199_1014" x1="14.0614" y1="0" x2="14.0614" y2="35.8954" gradientUnits="userSpaceOnUse">
<stop stop-color="#34DA4F"/>
<stop offset="1" stop-color="#29AB87"/>
</linearGradient>
<clipPath id="clip0_1199_1014">
<rect width="118.435" height="45.2174" fill="white"/>
</clipPath>
</defs>
</svg>
