<svg width="178" height="36" viewBox="0 0 178 36" fill="none" xmlns="http://www.w3.org/2000/svg">
<path d="M30.8278 33.4865H27.1439L20.1641 14.2863L13.223 33.4865H9.53916L0 8.24323H4.84713L11.4005 27.8259L17.9926 8.24323H22.3744L28.9277 27.8259L35.481 8.24323H40.3281L30.8278 33.4865Z" fill="white"/>
<path d="M47.3077 18.4935C48.0315 17.3716 48.8717 16.5684 49.8282 16.0839C50.8106 15.574 51.9609 15.319 53.2794 15.319C54.0549 15.319 54.8046 15.4337 55.5284 15.6632C56.2523 15.8672 56.8856 16.2114 57.4285 16.6959C57.9972 17.1804 58.4367 17.8178 58.7469 18.6083C59.083 19.3987 59.251 20.3676 59.251 21.5151V33.4865H54.9856V21.8593C54.9856 20.8139 54.7529 20.0362 54.2876 19.5262C53.8222 18.9907 53.1889 18.723 52.3875 18.723C51.8963 18.723 51.3793 18.7995 50.8364 18.9525C50.3194 19.1055 49.8282 19.335 49.3629 19.6409C48.8976 19.9469 48.4839 20.3166 48.122 20.7501C47.7601 21.1836 47.4887 21.668 47.3077 22.2035V33.4865H43.0422V5.18345H47.3077V18.4935Z" fill="white"/>
<path d="M68.7032 33.4865H64.4378V15.8927H68.7032V33.4865ZM63.8173 10.2321C63.8173 9.87512 63.882 9.53089 64.0112 9.19941C64.1663 8.86794 64.3731 8.57471 64.6317 8.31973C64.8902 8.03925 65.1745 7.82251 65.4847 7.66952C65.8208 7.51653 66.1827 7.44004 66.5705 7.44004C66.9324 7.44004 67.2814 7.51653 67.6175 7.66952C67.9536 7.82251 68.2508 8.03925 68.5094 8.31973C68.7937 8.57471 69.0135 8.86794 69.1686 9.19941C69.3237 9.53089 69.4012 9.87512 69.4012 10.2321C69.4012 10.6146 69.3237 10.9715 69.1686 11.303C69.0135 11.609 68.7937 11.8895 68.5094 12.1445C68.2508 12.3994 67.9536 12.6034 67.6175 12.7564C67.2814 12.8839 66.9324 12.9477 66.5705 12.9477C65.8208 12.9477 65.1745 12.6799 64.6317 12.1445C64.0888 11.609 63.8173 10.9715 63.8173 10.2321Z" fill="white"/>
<path d="M74.8706 18.4553H72.6603V16.1604L75.1808 15.778L75.8788 10.5763H79.1361V15.8927H82.5485V18.4553H79.1361V28.5526C79.1361 29.3175 79.2136 29.8402 79.3687 30.1207C79.5239 30.3757 79.8211 30.5032 80.2606 30.5032C80.5967 30.5032 80.9328 30.4394 81.2688 30.3119C81.6049 30.1844 82.0961 29.9422 82.7424 29.5852L83.4403 32.6068C82.9492 33.0147 82.2512 33.3335 81.3464 33.563C80.4674 33.8179 79.5885 33.9454 78.7095 33.9454C77.934 33.9454 77.2877 33.8434 76.7707 33.6395C76.2795 33.4355 75.8917 33.1422 75.6074 32.7598C75.323 32.3518 75.1291 31.8673 75.0257 31.3064C74.9223 30.7454 74.8706 30.1207 74.8706 29.4322V18.4553Z" fill="white"/>
<path d="M95.0359 15.319C97.3108 15.319 99.0687 15.8927 100.31 17.0401C101.55 18.162 102.171 19.7557 102.171 21.821C102.171 22.1015 102.145 22.4075 102.093 22.739C102.067 23.0449 102.016 23.3509 101.938 23.6569C101.887 23.9629 101.809 24.2434 101.706 24.4983C101.628 24.7278 101.538 24.9191 101.434 25.0721H90.15C90.2017 25.837 90.3439 26.5637 90.5765 27.2522C90.8092 27.9151 91.1453 28.5016 91.5847 29.0115C92.0242 29.496 92.5542 29.8912 93.1746 30.1972C93.8209 30.4777 94.5706 30.6179 95.4237 30.6179C96.3802 30.6179 97.3884 30.4394 98.4483 30.0825C99.534 29.7255 100.452 29.2793 101.201 28.7438L101.899 31.8801C101.563 32.0841 101.15 32.3135 100.659 32.5685C100.167 32.798 99.6116 33.0147 98.9911 33.2187C98.3707 33.4227 97.6986 33.5885 96.9747 33.7159C96.2768 33.8689 95.54 33.9454 94.7645 33.9454C93.3168 33.9454 92.0371 33.7032 90.9255 33.2187C89.8139 32.7088 88.8833 32.0331 88.1336 31.1916C87.3839 30.3247 86.8152 29.3303 86.4274 28.2083C86.0396 27.0864 85.8457 25.9135 85.8457 24.6896C85.8457 23.4402 86.0396 22.2545 86.4274 21.1326C86.841 19.9852 87.4356 18.978 88.2111 18.111C88.9867 17.2441 89.9432 16.5684 91.0806 16.0839C92.2439 15.574 93.5624 15.319 95.0359 15.319ZM94.9196 18.6083C93.8338 18.6083 92.9032 18.927 92.1276 19.5644C91.3779 20.1764 90.835 21.0178 90.499 22.0888H97.9054C97.9312 22.0123 97.9442 21.923 97.9442 21.821C97.97 21.719 97.9829 21.5915 97.9829 21.4386C97.9829 20.6226 97.6986 19.9469 97.1298 19.4114C96.5611 18.876 95.8244 18.6083 94.9196 18.6083Z" fill="white"/>
<path d="M107.917 34.0195C105.995 34.0195 105.035 32.4402 105.035 29.2817C105.035 27.2682 105.675 23.9518 106.956 19.3325C108.237 14.6737 109.858 10.39 111.819 6.48139C113.821 2.4938 115.582 0.5 117.103 0.5C117.984 0.5 118.864 0.796108 119.745 1.38832C120.625 1.94106 121.066 2.55302 121.066 3.2242C121.066 6.06684 116.823 12.3838 108.337 22.1751C108.017 23.6359 107.756 24.998 107.556 26.2614C107.396 27.5248 107.316 28.7092 107.316 29.8147C107.316 31.9862 107.796 33.0719 108.757 33.0719L109.718 32.7758C109.918 32.7758 110.018 32.8745 110.018 33.0719C110.018 33.7036 109.318 34.0195 107.917 34.0195ZM108.757 20.6354C116.002 11.3178 119.625 5.45488 119.625 3.04653C119.625 2.57276 119.485 2.33587 119.204 2.33587C118.004 2.33587 116.262 4.44811 113.981 8.67259C111.699 12.8971 109.958 16.8847 108.757 20.6354Z" fill="white"/>
<path d="M114.412 33.9602C113.612 33.9602 112.871 33.6049 112.191 32.8942C111.55 32.1441 111.23 31.1966 111.23 30.0516C111.23 28.9067 111.931 27.13 113.332 24.7217C114.733 22.3528 116.454 20.2208 118.495 18.3257C120.497 16.4701 122.218 15.5423 123.659 15.5423H124.259C125.74 15.5423 127.001 15.8384 128.042 16.4306C129.083 16.9834 129.603 17.7335 129.603 18.681C129.603 19.1153 129.423 19.3325 129.063 19.3325C128.943 19.3325 128.882 19.2733 128.882 19.1548C128.242 17.694 127.261 16.9636 125.94 16.9636C123.659 16.9636 121.057 18.8192 118.135 22.5305C115.213 26.1627 113.752 28.9659 113.752 30.9399C113.752 31.6901 113.952 32.0651 114.352 32.0651C116.154 32.0651 119.936 28.0578 125.7 20.0431C125.66 20.0826 125.68 20.0826 125.76 20.0431C125.88 19.9642 125.98 19.9247 126.06 19.9247C126.261 19.9247 126.681 20.1221 127.321 20.5169C127.962 20.8722 128.282 21.1881 128.282 21.4645C128.282 21.4645 128.202 21.6027 128.042 21.879C127.882 22.1159 127.682 22.491 127.441 23.0042C126.801 24.3466 126.301 25.6692 125.94 26.9721C125.62 28.2355 125.46 29.3409 125.46 30.2885C125.46 32.381 125.98 33.4272 127.021 33.4272L127.622 33.3088L127.742 33.368C127.742 33.7233 127.241 33.901 126.241 33.901C125.28 33.901 124.479 33.4667 123.839 32.5981C123.239 31.6901 122.938 30.4859 122.938 28.9856C122.938 27.5248 123.198 25.9061 123.719 24.1294C123.679 24.2479 123.539 24.465 123.299 24.7809C123.058 25.0967 122.678 25.6495 122.158 26.4391C118.875 31.4532 116.294 33.9602 114.412 33.9602Z" fill="white"/>
<path d="M133.731 35.5C131.77 35.5 130.169 34.5327 128.928 32.5981C128.808 32.4007 128.808 32.2428 128.928 32.1244C130.209 33.0324 131.43 33.4865 132.591 33.4865C135.272 33.4865 137.774 31.8875 140.096 28.6895C142.497 25.4126 143.698 22.2146 143.698 19.0956C143.698 17.8717 143.278 17.2597 142.437 17.2597C140.676 17.2597 138.635 18.9969 136.313 22.4712C133.951 25.9456 132.771 28.6698 132.771 30.6438C132.771 30.9992 132.911 31.4729 133.191 32.0651C133.191 32.2625 133.031 32.3218 132.711 32.2428C132.43 32.1638 132.15 31.927 131.87 31.5321C131.59 31.0979 131.45 30.5254 131.45 29.8147C131.45 28.7882 131.67 27.4064 132.11 25.6692C132.591 23.932 133.331 21.9185 134.332 19.6286L138.715 9.67936C139.635 7.23153 140.096 5.5141 140.096 4.52707C140.096 3.69797 139.735 3.28342 139.015 3.28342L136.914 3.69797C136.633 3.69797 136.493 3.57953 136.493 3.34264C136.493 2.75042 137.234 2.45431 138.715 2.45431C140.236 2.45431 141.397 2.71094 142.197 3.2242C143.038 3.73745 143.458 4.46785 143.458 5.4154C143.458 6.32346 142.678 8.29752 141.116 11.3376L137.994 17.3782C139.235 16.5096 140.696 16.0753 142.377 16.0753C145.139 16.0753 146.52 17.3979 146.52 20.0431C146.52 23.0832 145.039 26.4193 142.077 30.0516C139.115 33.6839 136.333 35.5 133.731 35.5Z" fill="white"/>
<path d="M151.558 34.1379C148.155 34.1379 146.454 32.5784 146.454 29.4594C146.454 27.051 147.655 24.1294 150.057 20.6946C152.538 17.2597 154.9 15.5423 157.142 15.5423C158.102 15.5423 158.943 15.8582 159.663 16.4898C160.424 17.0821 160.804 17.8125 160.804 18.681C160.804 20.1419 159.863 21.6224 157.982 23.1227C156.141 24.5835 154.32 25.3139 152.518 25.3139C152.158 25.3139 151.978 25.2349 151.978 25.077L152.158 24.7809C156.761 23.3596 159.063 21.0302 159.063 17.7927C159.063 17.319 158.903 17.0821 158.583 17.0821C158.142 17.0821 157.342 17.5361 156.181 18.4442C155.18 19.2338 154.24 20.1419 153.359 21.1684C152.518 22.1949 151.758 23.2609 151.077 24.3663C149.636 26.7747 148.916 28.7882 148.916 30.4069C148.916 31.9862 149.536 32.7758 150.777 32.7758C152.218 32.7758 153.799 32.0454 155.52 30.5846C156.081 30.0713 156.681 29.4989 157.322 28.8672C157.962 28.196 158.663 27.4656 159.423 26.676C160.904 25.0967 161.685 24.3071 161.765 24.3071C162.005 24.3071 162.125 24.4058 162.125 24.6032C162.125 24.7611 162.085 24.9191 162.005 25.077C157.802 31.1176 154.32 34.1379 151.558 34.1379Z" fill="white"/>
<path d="M164.851 34.0195C162.929 34.0195 161.969 32.4402 161.969 29.2817C161.969 27.2682 162.609 23.9518 163.89 19.3325C165.171 14.6737 166.792 10.39 168.754 6.48139C170.755 2.4938 172.516 0.5 174.037 0.5C174.918 0.5 175.798 0.796108 176.679 1.38832C177.56 1.94106 178 2.55302 178 3.2242C178 6.06684 173.757 12.3838 165.271 22.1751C164.951 23.6359 164.691 24.998 164.491 26.2614C164.33 27.5248 164.25 28.7092 164.25 29.8147C164.25 31.9862 164.731 33.0719 165.691 33.0719L166.652 32.7758C166.852 32.7758 166.952 32.8745 166.952 33.0719C166.952 33.7036 166.252 34.0195 164.851 34.0195ZM165.691 20.6354C172.936 11.3178 176.559 5.45488 176.559 3.04653C176.559 2.57276 176.419 2.33587 176.139 2.33587C174.938 2.33587 173.197 4.44811 170.915 8.67259C168.633 12.8971 166.892 16.8847 165.691 20.6354Z" fill="white"/>
</svg>

