<?xml version="1.0" encoding="UTF-8"?>
<svg version="1.1" viewBox="0 0 2048 1055" width="1100" height="567" xmlns="http://www.w3.org/2000/svg">
<path transform="translate(0)" d="m0 0h2048v1055h-2048z" fill="#0C0329"/>
<path transform="translate(454,361)" d="m0 0 9 1 6-1 2 1 15 1 2 1h59l2 1 16 2 6 2 1 1v5l-4 2h-12l-7 2-9 9-7 4-2 4 5 1-1 7v12l3 8 5 13 3 4 4 15 4 11 3 9 1 2 1 12h11l-1 4-4 4-1 8 4 5 9 25 10 19 3 6 2 8 3 2 3 15 4 10 7 6 2 1 1-6 4-15 6-20 4-11 3-5 3-9 1-1h5l-2 13-3 9-4 10-6 25-3 8-3 11 2-1 3-12 5-18 4-14 6-16 5-14 3-6 3-9 4-11 10-38h-2l-1 8-3 5-5 22-8 1v-6l4-12 4-16 3-7h2l-2-19-5-10-4-12-4-8-6-15-6-13v-2l-5-1-1-4-24-2-4-6-1-5 5-3h30l4 3h30l1-1h20l3 2h26l3-1 16-2h21l1 1 11 2 1 4-1 2-27 6-16 3-2 10 1 5 2 1-1 5-3 1 1 5 6 4-2 10 4 2 2 8 3 17 4 9 2 12 2 4v8l2 5 2 11 8 18 7 9v7l3 10 2 2 2 13 4 6 1 10 10 24 2 5 3-8 5-17 3-8 9-30 5-15 5-18 4-14 3-11 5-12 4-8 5-14 2-13v-10l-3-8-2-3v-7l1-5-3-8-3-3-7-1-6-9v-2h-7l-8-2-10-1-5-5-2-4 6-5h26l7-1h35l16 1 5 2 10 1h11l5-1h22l3 4v2l2-1 41-3 6-1 5 1 5-1 3 1h13l15-2 25-2 3-2h19l6 7 51 1 22 2h16l33-1 5-4 5 2 5-1h4l2 1 32-1 5-1 15-1 5-1h44l9 1 4 1h29l4 1v3l6-1h58l25-1h53l10-1 24-1 63-1 21-1 18 1 7-2h20l10 3 2 2 1 19v4l2 4v3l-2 1-2 5 2 77 1 6-3 8-2 9-5-1-3-11-3 12-4-1-3-9v-7l1-1v-10l-8-16-5-5-2-3-2-7-4-7-5-12-5-7v-3l-4-1-3-3-3-7-1-3-5-2-5-5-6-2-9-10-7-5-13-3-2-1h-11l-10 2-34 1-13 2-9 4h-2v6l-1 5 5 3v6l-4 6v6l2 2v25l7 1-1 4-5 5-1 3 5 3v3l-5 5 1 4v20l8 2 1 1v5l-7 6-1 4v7h3l-1 5-2 3v7h14l17-2 17-5 8-5 6-7 3-3 5-12 2-9 1-26 1-13 1-10 4-8h3l2 5v13l-2 8-2 26v9l1 4 1-1 1-8v-18l1-7 1-19 3-9 4-4 3 6v11l-2 10-2 25v21h-2v10l5 8v8l-1 6v12l3 4-1 5-1 4v10l3 13 2 33 1 6v11l-2 1h-16l-3-1v-19l-5-15-4-10-6-5-10-19-7-2-2-1-1-7-5-4-9-4-2-2-14-2-3-1h-7l-7 1 2 7 3 3 1 4-5 5-1 3 3-2h3l4 6-2 4-5 5-1 4 4 2v2l5 1-2 6-4 2-3 5v10l4 2-2 7-3 1 1 15 1 2-1 12 2 2-1 6-4 5-1 4 1 5 3 1-1 6-4 7 1 5 1 1-1 13-2 4-10 1-2 2 1 1h14l23-2 28-1 24-4 25-5 16-5 8-4 13-5 5-4 9-11 10-13 5-9 3-9 5-12 3-20 2-15 1-33 3-4 5 1 1 4h2l1-4 1-1h5l3 6v9l-2 13 3 4-4 4v21l-2 11v21l2 10v9l1 10 4 2 1 4-3 1 4 10-4 7 1 11v9l1 9h-19l-2 3-5-1-5-2-1 3-10-2-10 1h-31l-7-1-62-1h-86l-22 1h-43l-12 1h-36l-3-4 1-5 5-2 29-3 14-3 4-4 3-5 5-3h3l1-6v-26l-2-2 1-5v-7l-3-3 1-7 4-8v-7l-2-6 1-9 3-14v-12l-3-3v-7l1-1v-5l-4-4 1-5 2-5-12 1-1-3 4-8 3-1 5-5v-17l1-5-5-1-2-3 1-5 4-5 1-2v-13l-3-2 2-10 2-6v-17l-3-2-1-9 4-4 1-9 1-16-1-2-1-9-2-1-1-10-4-7-8-4-7 1-1-1h-7l-3 1-6-2 2 6-1 6-1 10 1 3v18l3 4-2 5-3 1 1 9v66l-2 1h-6l-4-4v4h-6l-6-7-3-11-2-9-1-4-3-1-2-5-3-14-5-8-3-12-6-11-10-13-1-2-6-2-6-5v-4h-3l-6-11-17-1-3-7-5-2-7-1-17-1h-22l-6 2-17 1-10 1 1 8-5 4h-2l2 7v9l2 5 1 11v3l6 3-1 5-2 3v7l1 1v14l6 2 2 2-1 7-7 6v8l2 6-3 4h-2v11l-3 1-3-3 1-4h-6v7l-10 2 2-4 2-3-6 1-3-1v4l-3-1 1-3-6 1h-2l-1 3-3-1 1-4h-6l-7 7-8 1-1 6 3-1 3-3 4-1v5l5-2 1-6 3 1 1 3 13 1 9 1 2 3 5-1 2 2-1 7 8-2 1-3h2v6l29-1 5-2 7-10 4-5 5-5 5-7h4l2-5 6-9 3-11 2-3 3-28 3-10h3v2l4 2v8l-1 1-1 23 1-3 1-18 2-12 2-2 5 1 2 4-2 20-1 24-1 5v37l-2 5 1 9 1 5-1 3v21l-1 7 2 8v18l4 29v5l-3 2-5-1-2-6-1-16-3-13 1 14 2 13v7l-3 2-5-1-2-9-4-29-5-15-7-13-8-9-10-5-5-7-10-5h-13l-1-1-10-1 1 3v7l-1 3v7l3 3 4 2-2 2-2 7-2 1-2 12 5-1-1 4-3 7v9l3 5-1 5-3 4v10l4 3v7l-3 2v12l3 4-1 5-2 7 1 18 2 5 6 3v2l9 2 13 5 31-1 12-1 11 1 1 3h2l-1 4-9 4-12 2h-9l-20 3h-20l-9 1h-11l-8-1-11 1h-43v2h-5l-5-1-5 1-1-1h-7l-1 1h-14l-28 4h-27l-2-2v-4h-14l-16-2-37-1-48 2-18 3h-28l-4-4 1-4 2-1 15-1 18-5 9-4 12-5 3-8-6 5-6 1 1-5 5-5 11-8v-7l-3-12 1-10 2-4-1-10-2-5 1-7v-15l-1-6v-8l2-5-1-15-1-2v-7l1-4 1-17 1-2 1-18v-8l-1-10-1-8-1-1v-6l3-3v-24l3-23v-26h-8l-2-1 1-5 3-4v-3l-5-2 2-5 1-5-6-5v-3l-9 3-8 5-10 10-7 11-9 11-4 8-3 7-6 13-5 13-9 23-4 15-9 29-7 29-3 8-5 15-8 36v6l-5 7-2 8-1 12-4 6-4 16-3 6-2 5-3 15-2 4 1 5 1 6-10 4h-22l-6-3-6-5-2-9-3-10-6-15-3-6-2-2-1-12-6-13-1-10-3-9-6-20-5-11-2-5-4-7-8-20-2-3v-11l-6-25-5-22-3-7-1-2v-7l-7 28-3 10-5 10-3 5-3 10-4 11-4 16-3 11-7 24-5 16-5 12-3 29-1 12-3 9v9l-11 22-11 1h-21l-2-5-2-9-8-15-8-21-3-10-6-4 1-11-5-9v-10l-6 2v-11l-5-16-3-3 1-7-6-8-1-1-1-12-3-8-2-8-4-4-3-10-4-3-2-9-5-5v-10l-5-11-4-11-5-9-2-10-3-6h-7l-2-3 1-4 5-7-1-8-2-4-2-9-3-8-7-1 1-10-3-6-3-11-4-3-3-1-1-7-4-1h-5l1-7-4-2-8-2-13-1h-8l-6-4v-6l1-1h52z" fill="#7402DB"/>
<path transform="translate(1646,367)" d="m0 0h20l10 3 2 2 1 19v4l2 4v3l-2 1-2 5 2 77 1 6-3 8-2 9-5-1-3-11-3 12-4-1-3-9v-7l1-1v-10l-8-16-5-5-2-3-2-7-4-7-5-12-5-7v-3l-4-1-3-3-3-7-1-3-5-2-5-5-6-2-9-10-7-5-13-3-2-1h-11l-10 2-34 1-13 2-9 4h-2v6l-1 5 5 3v6l-4 6v6l2 2v25l7 1-1 4-5 5-1 3 5 3v3l-5 5 1 4v20l8 2 1 1v5l-7 6-1 4v7h3l-1 5-2 3v7h14l17-2 17-5 8-5 6-7 3-3 5-12 2-9 1-26 1-13 1-10 4-8h3l2 5v13l-2 8-2 26v9l1 4 1-1 1-8v-18l1-7 1-19 3-9 4-4 3 6v11l-2 10-2 25v21h-2v10l5 8v8l-1 6v12l3 4-1 5-1 4v10l3 13 2 33 1 6v11l-2 1h-16l-3-1v-19l-5-15-4-10-6-5-10-19-7-2-2-1-1-7-5-4-9-4-2-2-14-2-3-1h-7l-7 1 2 7 3 3 1 4-5 5-1 3 3-2h3l4 6-2 4-5 5-1 4 4 2v2l5 1-2 6-4 2-3 5v10l4 2-2 7-3 1 1 15 1 2-1 12 2 2-1 6-4 5-1 4 1 5 3 1-1 6-4 7 1 5 1 1-1 13-2 4-10 1-2 2 1 1h14l23-2 28-1 24-4 25-5 16-5 8-4 13-5 5-4 9-11 10-13 5-9 3-9 5-12 3-20 2-15 1-33 3-4 5 1 1 4h2l1-4 1-1h5l3 6v9l-2 13 3 4-4 4v21l-2 11v21l2 10v9l1 10 4 2 1 4-3 1 4 10-4 7 1 11v9l1 9h-19l-2 3-5-1-5-2-1 3-10-2-10 1h-31l-7-1-62-1h-86l-22 1h-43l-12 1h-36l-3-4 1-5 5-2 29-3 14-3 4-4 3-5 5-3h3l1-6v-26l-2-2 1-5v-7l-3-3 1-7 4-8v-7l-2-6 1-9 3-14v-12l-3-3v-7l1-1v-5l-4-4 1-5 2-5-12 1-1-3 4-8 3-1 5-5v-17l1-5-5-1-2-3 1-5 4-5 1-2v-13l-3-2 2-10 2-6v-17l-3-2-1-9 4-4 1-9 1-16-1-2-1-9-2-1-1-10-4-7-8-4-7 1-1-1h-7l-3 1-6-2 2 6-1 6-1 10 1 3v18l3 4-2 5-3 1 1 9v66l-2 1h-6l-4-4v4h-6l-6-7-3-11-2-9-1-4-3-1-2-5-3-14-5-8-3-12-6-11-10-13-1-2-6-2-6-5v-4h-3l-6-11-17-1-3-7-5-2-7-1-17-1-1-1-16-1 1-2 12-3 4-2h4l3-1 12-3 15-1 5-1h44l9 1 4 1h29l4 1v3l6-1h58l25-1h53l10-1 24-1 63-1 21-1 18 1z" fill="#2D69FA"/>
<path transform="translate(0)" d="m0 0h323l1 5-4 7h-2l-1 3-5 5-1 3h-2v2l-9 7-4 9-7 10-2 3h-2l-2 5-4 3-3 6-4 2-2 5-4 4h-3l-2 4-6 7-2 5h-2l-2 4-4 3h-2l-2 6-9 11-3 4h-2v2l-5 2v2l-3 3h-2l-2 4-3 3-6 9-8 10-8 7-6 9-7 8-17 12-5 5-3 5h-2l-2 4-4 5-5 6-7 10-4 6-6 4-4 4-6 5-2 5-3 1-1 2h-2l-1 4-6 4-7 11-6 8h-3l-2 5-9 7h-2l-2 5-4 6-7 9-1 3-5 5-1 2h-2l-1 4-5 5-13 12-6 8-3 1v2l-3-1-2 1-3 7-1-2-3 1-3 7-3-1z" fill="#380F6C"/>
<path transform="translate(454,361)" d="m0 0 9 1 6-1 2 1 15 1 2 1h59l2 1 16 2 6 2 1 1v5l-4 2h-12l-7 2-9 9-7 4-2 4 5 1-1 7v12l3 8 5 13 3 4 4 15 4 11 3 9 1 2 1 12h11l-1 4-4 4-1 8 4 5 9 25 10 19 3 6 2 8 3 2 3 15 4 10 7 6 2 1 1-6 4-15 6-20 4-11 3-5 3-9 1-1h5l-2 13-3 9-4 10-6 25-3 8-3 11 2-1 3-12 5-18 4-14 6-16 5-14 3-6 3-9 4-11 10-38h-2l-1 8-3 5-5 22-8 1v-6l4-12 4-16 3-7h2l-2-19-5-10-4-12-4-8-6-15-6-13v-2l-5-1-1-4-24-2-4-6-1-5 5-3h30l4 3h30l1-1h20l3 2h26l3-1 16-2h21l1 1 11 2 1 4-1 2-27 6-16 3-2 10 1 5 2 1-1 5-3 1 1 5 6 4-2 10 4 2 2 8 3 17 4 9 2 12 2 4v12l-5 5-4 1-3 6h-2l-2 5h-2v5l-4 3v11l-4 6h-4l1 4-5 6-5 1v2l-3 3 14-1h12l2 1 13 1v3l-5 2-8-1v2l-10 1-1-1-8 4-1 2 7-4 2 1-1 4-6 7 10-9 4-1v3h5v3l3-3 3 1-2 6 3 2v2l3 1-4 4-5 2-2 1h-3v2l2 1h-2l1 6-1 4v4l5 1-1 7 6 1-1 4-2 3 2 4h-5l-2-6v-6l-3 3 1 12 5 1v2l3 1-4 10 2 4 5 2 4 1 1 1-1 12-2 4v5l3 9v3h3l1-6h3l1 6-2 3-3 9-4 1v7l3 9 2 3 3-3h5l3 4-1 5 4 5v3h-11l-6-3-6-5-2-9-3-10-6-15-3-6-2-2-1-12-6-13-1-10-3-9-6-20-5-11-2-5-4-7-8-20-2-3v-11l-6-25-5-22-3-7-1-2v-7l-7 28-3 10-5 10-3 5-3 10-4 11-4 16-3 11-7 24-5 16-5 12-3 29-1 12-3 9v9l-11 22-11 1h-21l-2-5-2-9-8-15-8-21-3-10-6-4 1-11-5-9v-10l-6 2v-11l-5-16-3-3 1-7-6-8-1-1-1-12-3-8-2-8-4-4-3-10-4-3-2-9-5-5v-10l-5-11-4-11-5-9-2-10-3-6h-7l-2-3 1-4 5-7-1-8-2-4-2-9-3-8-7-1 1-10-3-6-3-11-4-3-3-1-1-7-4-1h-5l1-7-4-2-8-2-13-1h-8l-6-4v-6l1-1h52z" fill="#AE04B5"/>
<path transform="translate(1019,382)" d="m0 0 9 1h48l7 2-1 8-1 6 3 3-1 9 4 3 1 10-3 3 2 5 4 1v15l-10 10-1 5 11-2 2 11v10l2 9v14l1 5-3 3-4 12 4-2h4l1 2 1 22-2 3-1 8h2l1 6-2 2 1 7 1 10-1 3-5 4v10l5 1-1 9-5 6-1 8 5 4-1 5-5 5-3 1v9h9v6l-5 8 1 6 3 3v5l-7 7-1 5-3 1-4-2-1 4 1 7 10-3 1 3-6 9-7 7-6 4-25-1-14-1-11-3-10-5-2-8-2-1 1-4 2-9-3-3v-8l2-5-1-9v-11l1-4-5-6v-5l2-3h2l2-4 4-3h3v-2l-7 3-4 4h-3v-5h2l1-2h-4l1-5 2-2 4 1h3l4-4 5 1-1 5 5-5 1-3-4-1h-20l-2-11 2-5-1-5 1-16 4-9v-2l-3-1-2-6 1-17v-17l4-10-5-2 1-6 2-4v-5l-4-2v-23l3-9 1-19 1-1-1-18v-5l-1-1v-12l5-10 3-4 3-5z" fill="#0C0329"/>
<path transform="translate(326,489)" d="m0 0h41l6 4-1 4-6 3-8-1-13 6-1 2 1 9 3 6v3h2l4 6 4 5 6 11 8 10 2 3v5l3-3 7-11 5-7 7-15 2-5 3-12-1-6-4-4-9-6-2-2v-3h22l8 1h27l5-2h16l5 3-1 4-9 3-12 2-7 5-12 16-4 5-8 13-10 13-3 3-4 8-4 5h-2l5 5 1 4-9 6-1 2 5 1 3 2-1 9 3 8 4 5 3 5 5 6 5 11 4 5 4 3 2 10 7 13 3 5v2l6 1 2 1-1 8 3 5 4 4 3 6 2 3 15 1 2 4-5-1 2 6 3 2 18 1 2 3v5l-4 2h-21l-11-1-29 1-12 2-4-1-6 1h-39l2-5 2-2 18-1v-6l-5-9-8-4-2-2-2-8-7-10-6-10-4-5-5-4-2-5-5-1-1-5-4 4-6 12-7 9-8 13-4 5 1 6-2 3v7l3 7v2l4 1 1 5h5l4 5-1 3-2 1h-41l-4-2h-22l-11 1h-11l-2-2v-3l15-9 6-1v-3l14-9 11-9 7-7 9-11 11-13 11-17 9-11 4-10-1-7-7-11-4-5-6-15-1-4h-5l-1-6 1-4h-7l-3-5 1-4 3-1-1-2-6-3-8-16-3-5-6-4-4-6 2-6-4-2-6-10-2-2-25-1-4-2 1-10 1-1h66l8-2 13-1z" fill="#B103B6"/>
<path transform="translate(599,368)" d="m0 0h30l4 3h30l1-1h20l3 2h26l3-1 16-2h21l1 1 11 2 1 4-1 2-27 6-16 3-2 10 1 5 2 1-1 5-3 1 1 5 6 4-2 10 4 2 2 8 3 17 4 9 2 12 2 4v12l-5 5-4 1-3 6h-2l-2 5h-2v5l-4 3v11l-4 6h-4l1 4-5 6-5 1v2l-3 3 14-1h12l2 1 13 1v3l-5 2-8-1v2l-10 1-1-1-8 4-1 2 7-4 2 1-1 4-6 7 10-9 4-1v3h5v3l3-3 3 1-2 6 3 2v2l3 1-4 4-5 2-2 1h-3v2l2 1h-2l1 6-1 4v4l5 1-1 7 6 1-1 4-2 3 2 4h-5l-2-6v-6l-3 3 1 12 5 1v2l3 1-4 10 2 4 5 2 4 1 1 1-1 12-2 4v5l3 9v3h3l1-6h3l1 6-2 3-3 9-4 1v7l3 9 2 3 3-3h5l3 4-1 5 4 5v3h-11l-6-3-6-5-2-9-3-10-6-15-3-6-2-2-1-12-6-13-1-10-3-9-6-20-5-11-2-5-4-7-8-20-2-3v-11l-6-25-5-22-3-7-1-2v-7l-7 28-3 10-5 10-3 5-3 10-4 11-4 16-3 11-7 24-5 16-2 2 1-5h-2l-2-3v-3l-3-1v-2h2v-2l-3-1 1-7 4-11 1-2 2 1-4 15 2-1 3-12 5-18 4-14 6-16 5-14 3-6 3-9 4-11 10-38h-2l-1 8-3 5-5 22-8 1v-6l4-12 4-16 3-7h2l-2-19-5-10-4-12-4-8-6-15-6-13v-2l-5-1-1-4-24-2-4-6-1-5z" fill="#9806C1"/>
<path transform="translate(0)" d="m0 0h171v3l-2 2 1 3-3 9-6 10-10 9h-2v2h-2l-1 3h-2l-1 2-4 2v2h-2v2h-2v2h-3v2l-6 5-1 3h-2v2l-4 4-3 5h-2l-2 5-5 6v2h-3l-3 6-3 3h-2v3l-4 1v2h-2l-1 4-6 5h-2l-1 4-8 9h-2v2l-5 4-2 6h-2v2h-2v2h-2v2h-2l-1 4-3 3h-2l-1 4-5 5-8 7-4 6-8 7-10 12-1 2h-2v-2l-4-2-3 3v5l-3 1z" fill="#481597"/>
<path transform="translate(1255,436)" d="m0 0h3v2l4 2v8l-1 1-1 23 1-3 1-18 2-12 2-2 5 1 2 4-2 20-1 24-1 5v37l-2 5 1 9 1 5-1 3v21l-1 7 2 8v18l4 29v5l-3 2-5-1-2-6-1-16-3-13 1 14 2 13v7l-3 2-5-1-2-9-4-29-5-15-7-13-8-9-10-5-5-7-10-5h-13l-1-1-10-1 1 3v7l-1 3v7l3 3 4 2-2 2-2 7-2 1-2 12 5-1-1 4-3 7v9l3 5-1 5-3 4v10l4 3v7l-3 2v12l3 4-1 5-2 7 1 18 2 5 6 3v2l9 2 13 5 31-1 12-1 11 1 1 3h2l-1 4-9 4-12 2h-9l-20 3h-20l-9 1h-11l-8-1-11 1h-43v2h-5l-5-1-1-2 6-1 3-3 4 1v2h32l-4-2h-2v-2l-16-1 1-2 6-1 1 1 1-9-1-3 2-1h-9v2l-12 5-1 1-9 1-5 1v-2l4-3h6l12-9v-2l-9-1v-7l6-4 2-3 1-6-1-3 5-3 5-2 2-6 3-1-3-9 2-3 3-2 4-2 5-1-1-2 8-2 1-3 3-1 2-4v-5l-3-4h-4l1-4 5-4 1-4v-6l2-2v-3l-2-1v-10h-3l1-3-4-1-1 2-1-1v-5l3-3 3-1 2-5-11 6-7 2-9 8-7 2h-6v2l-3 3-2 3-5-1v7l-4 2h-3v-8h2l1-5 4-4h4l2-5 4-6 5-5-8 4v-2h2l-1-4h2l2-8v-2l-4-1 1-4 1-2h3v2l10-2 7-2h4v-2l10-5 7-3 1-3 1-7-3-1 2-3v-5l3-2 2 2-1 7 8-2 1-3h2v6l29-1 5-2 7-10 4-5 5-5 5-7h4l2-5 6-9 3-11 2-3 3-28z" fill="#5F01D1"/>
<path transform="translate(1271,368)" d="m0 0h44l9 1 4 1h29l4 1v3l6-1h20v6l4 2 1 4-10 2-1-1h-7l-3 1-6-2 2 6-1 6-1 10 1 3v18l3 4-2 5-3 1 1 9v66l-2 1h-6l-4-4v4h-6l-6-7-3-11-2-9-1-4-3-1-2-5-3-14-5-8-3-12-6-11-10-13-1-2-6-2-6-5v-4h-3l-6-11-17-1-3-7-5-2-7-1-17-1-1-1-16-1 1-2 12-3 4-2h4l3-1 12-3 15-1z" fill="#443FF5"/>
<path transform="translate(1673,559)" d="m0 0 5 1 1 4h2l1-4 1-1h5l3 6v9l-2 13 3 4-4 4v21l-2 11v21l2 10v9l1 10 4 2 1 4-3 1 4 10-4 7 1 11v9l1 9h-19l-2 3-5-1-5-2-1 3-10-2-10 1h-31l-20-2-27-1v-3l2-4 30-1 5-1 16-1 5-4 1-3-8 6-5-1-3-2-3 3-5-1-4-3-18 2h-6l-3-3-1-4 2-2 26-5 12-4 8-4 13-5 5-4 9-11 10-13 5-9 3-9 5-12 3-20 2-15 1-33z" fill="#188DFA"/>
<path transform="translate(1409,499)" d="m0 0 5 5 3 8 5 1-4 16 3-1v5l-4 6 1 2 4 2 1 12v2l4 2v2l2 1-1 3-7 6-2 1-1 4 4 1 3 5 2 5 7 8-1 8v4l7-1 9-2h7l3 1 7-3 4-5 1-2h2l-1 13 1 4-4 4 1 5-4 7-7 2 3-8 3-3-2-1-1-1-4 6-2-1 1-2h-10l-3 5h-3l1-3-5 1-6 3-3 4-3-1-6 7-2 1v2h5l1-2 6 1 4 2 2-1-2 5 1-1h2l-2 4v4l9-1 8-1 1-3 4 1-4 4h-3v2l7-4 13-2-2 4-4 3-6 2-6 4-1 2-7 3-5 3-8 2-2 4-7 6-3 10h23v-3l4-2 12-1 7-3 4-3 2 1-4 5-12 7-11 7-12 6-6 5 4 1 2 2 7 1 1 2h3l2 7 2 6 9 1v1l-22 1h-43l-12 1h-36l-3-4 1-5 5-2 29-3 14-3 4-4 3-5 5-3h3l1-6v-26l-2-2 1-5v-7l-3-3 1-7 4-8v-7l-2-6 1-9 3-14v-12l-3-3v-7l1-1v-5l-4-4 1-5 2-5-12 1-1-3 4-8 3-1 5-5v-17l1-5-5-1-2-3 1-5 4-5 2-8 1 2z" fill="#2E54EC"/>
<path transform="translate(1255,436)" d="m0 0h3v2l4 2v8l-1 1-1 23 1-3 1-18 2-12 2-2 5 1 2 4-2 20-1 24-1 5v37l-2 5 1 9 1 5-1 3v21l-1 7 2 8v18l4 29v5l-3 2-5-1-2-6-1-16-3-13 1 14 2 13v7l-3 2-5-1-2-9-4-29-5-15-7-13-8-9-10-5-5-7-10-5h-13l-1-1-10-1v8l-1-4-4-1 1-2-3-1-1 7h-6l-3-3 2-2-2-7 1-7-3-1 2-3v-5l3-2 2 2-1 7 8-2 1-3h2v6l29-1 5-2 7-10 4-5 5-5 5-7h4l2-5 6-9 3-11 2-3 3-28z" fill="#453EF5"/>
<path transform="translate(1646,367)" d="m0 0h20l10 3 2 2 1 19v4l2 4v3l-2 1-2 5 2 77 1 6-3 8-2 9-5-1-3-11-3 12-4-1-3-9v-7l1-1v-10l-8-16-5-5-2-3-2-7-4-7-5-12-5-7v-3l-4-1-3-3-3-7-1-3-5-2-5-5-6-2-9-10-7-5-13-3-2-8 25-1 6-1 21-1 18 1z" fill="#178EFA"/>
<path transform="translate(0)" d="m0 0h108l-2 4-8 1v2l-6 4-1 2h-2v2l-5 5-3 4h-2l-2 5-4 5-5 5-7 9h-2l-2 4-1 3-4 1v2l-13 13-9 8-2 6-5 5-3 5h-2l-1 4-8 11-6 6h-3z" fill="#72189F"/>
<path transform="translate(1574,433)" d="m0 0 3 3 1 3v13l-2 8-2 26v9l1 4 1-1 1-8v-18l1-7 1-19 3-9 4-4 3 6v11l-2 10-2 25v21h-2v10l5 8v8l-1 6v12l3 4-1 5-1 4v10l3 13 2 33 1 6v11l-2 1h-16l-3-1v-19l-5-15-4-10-6-5-2-3 1-7 1-1-5-2-1-2 1-3 5 2 2 1-1-10 1-1v-8l1-2 1-12-1-2 1-2-4-2-4-4-8-3 6-7 6-5 6-14 2-9 1-26 1-13 1-10 4-8z" fill="#1989F9"/>
<path transform="translate(1162,542)" d="m0 0 3 4-2 4 8 2 1-7 4 1-1 2h4 1v7l-1 3v7l3 3 4 2-2 2-2 7-2 1-2 12 5-1-1 4-3 7v9l1 5-4-2-3-8-2-1v4h2l1 4-5 6h1v5l-7 1h-2l-2 3-2-4h-4l1-4 5-4 1-4v-6l2-2v-3l-2-1v-10h-3l1-3-4-1-1 2-1-1v-5l3-3 3-1 2-5-11 6-7 2-9 8-7 2h-6v2l-3 3-2 3-5-1v7l-4 2h-3v-8h2l1-5 4-4h4l2-5 4-6 5-5-8 4v-2h2l-1-4h2l2-8v-2l-4-1 1-4 1-2h3v2l10-2 7-2h4v-2l10-5 7-3z" fill="#5E01CF"/>
<path transform="translate(1153,429)" d="m0 0h5l1 2-1 2 7-3 2 7 4 2-2 1 1 1 2 1-1 2 4-1 2-2 3-1-1 5v7l1 1v14l6 2 2 2-1 7-7 6v8l2 6-3 4h-2v11l-3 1-3-3 1-4h-6v7l-10 2 2-4 2-3-6 1-3-1v4l-3-1 1-3-6 1h-2l-1 3-3-1 1-4h-6l-7 7-7-1-1-5 1-3 10-7 5-8-3-1 2-3-4-4 1-6 6-2-1-2 8-5 3 1v5h-4v4 4l-2 3 6-3 3-1 3 5 6-2 4-5-3-3v-2l-6-2 1-7 4-9-1-10-4-9v-6z" fill="#5E02D0"/>
<path transform="translate(981,540)" d="m0 0h3v5l-4 4 5 2v8l-2 5-8 2v2l7-1h2l-1 22-16 10-6 4h-2v2l-3 2-1 3 9-6 10-5h2v2l-9 6 3 1v-2l5-3h2l-1 3-5 5-10 8-5 5-9 7-7 9h-3l1-7 6-8 4-2 1-2-6 4-3-1 6-4 3-5 2-2-4 2-10 6-1-5 4-3h-2l-1 2h-2v-11l2-4 8-4v-7l2-3-7 2-4 1-1-9 7-8 7-6 5-4h-9l5-5 6-3h3v-2l4-1-1 3 2 1-3 1h3l6-5 7-6 5-1v-2l-3-1z" fill="#0D032B"/>
<path transform="translate(1406,423)" d="m0 0h2l1 7v5h-2v6l3-1v-9l6-5 5 9 4 4 3 9-1 1v5l10 3v2l10-1 5-3 10-2 9-8h3l-1 6-12 6-2 3v4l7-4h3v5l-5 4-11 1-2 4h-2v2l-9 4-3 5-7 1-2 3 4-1-1 3h-9l-4 2h-4v3l-7-2-3 2-4-4 2-10 2-6v-17l-3-2-1-9 4-4 1-9z" fill="#2E54EB"/>
<path transform="translate(1157,573)" d="m0 0h3l-1 5-6 4v5l5-1 1 2h-2v2h3l1 5-1 5 3 1v5h-3l1 7-3 5-4 2v3l5 1-4 5h-5l-2 3h-2v-2h-8l-5 2-2 4-5 5-9 1 3-4 1-4-6-1-1-7h2l2-9 2-8 1-2-3 1-4-4v-5h2l1-5 3-1v-2l13-3 10-9 7-2z" fill="#5B01C7"/>
<path transform="translate(1198,370)" d="m0 0 5 2 5-1h4l2 1h31v1l-8 1-4 2h-3l-5 2-6 2-4 1h16v1l-21 1-6 2-17 1-10 1 1 8-5 4h-2l2 7v9l2 5 1 11v3l6 3-1 5h-3l-5 4v-2h-2l-1-1-2-1 1-4-4-4-1-3-6 2-1-3-4 1v6l1 5 3 1-9-1-3-3h-1v-5h2v-4h-2v-3l3-1-1-5 3-2 1-5 9-11-1-5 3-6 2-7 3-4h2v-4l-3 1h-24l-8-2-61-1v-2h50l22 2h16l33-1z" fill="#5E03D1"/>
<path transform="translate(604,639)" d="m0 0h2v2h3v3h7l-1 18-2 22h-1l-1-11h-2l-2 4-1 5-1 3 2 2 1 3-2 4-2 2-1 6-3 3-2-2-1-6-5 1-1-1-5 8-9-5-4-7v-2l3 1 3-2 3-6 2-10 3-3-1-2-16-1-1-3 4-1 1-2h5v-2l-4-1v-3l2-2v-6h9l5-1v-2l10-4z" fill="#9207B9"/>
<path transform="translate(1176,692)" d="m0 0h2l4 6 6 3v2l9 2 13 5 31-1 12-1 11 1 1 3h2l-1 4-9 4-12 2h-9l-20 3h-20l-9 1h-11l-8-2 1-2 3-2v-3l-2-2 1-1-8-4-6-1-2-4 4-2 7-7 3-1 3 1 1-2z" fill="#463BF3"/>
<path transform="translate(539,499)" d="m0 0h4l1 2 4 1v9h-7l12 6 2 7 1 4-2 2v14l-1 3 5-2h3l1 3 4 2-2 4-7 1-1 3-7 3-2 4-8 6-10-1v-4l6-2v3l7-4-2-3 2-6-9-4v-3l-7-2v-4h-3l-1 5-4-2 1-5 6-7 5-3 3-4-1-2-8 5-4 4-4-1 5-5 3-5h-11v-3l5-4 4-1v4l7-6h2l1-2h-8v-1l6-2 5-4z" fill="#8208AA"/>
<path transform="translate(983,451)" d="m0 0 1 3-3 4h4l-1 5-11 3-1 4 4 1-1 2 8-1v2h-2l3 3-2 4-3 1v2h2l-1 3-4 1-1 2h2l-2 4 8-2-5 5-7 4-2-1 2-4-5 3-11 8-1 15 8-4 10-6 4-2-2 4-4 3-7 3-5 5h-2v2l-7 2-1 3-5 3h-2l1-3 5-3 2-7-4-2-5 1-1-3 1-2 4-1-2-1 1-5 7-4v-4l-7 5h-3v-9h2v5l5-3h5l1 4 4-2 1-2h-2v-2h3l-1-2-1 1h-7v-3l-3 1 1-5-6-1-4-2 2-4 9-6 18-13 14-10z" fill="#5803BE"/>
<path transform="translate(1161,556)" d="m0 0h5l-1 4 4 1 3 2 5-2 3 5 6 4-2 2-2 7-2 1-2 12 5-1-1 4-3 7v9l1 5-4-2-3-8-2-1v4h2l1 4-5 6h1v5l-7 1h-2l-2 3-2-4h-4l1-4 5-4 1-4v-6l2-2v-3l-2-1v-10h-3l1-3-4-1-1 2-1-1v-5l3-3 3-1 2-3-1-4-4-3v-5l-9 1 1-3 8-1 1-2z" fill="#5903C7"/>
<path transform="translate(986,653)" d="m0 0h3l-2 6-4 2-5 9-11 6-7 5-6 1-2 4-4 1-1 4 7-1 4-2 1 4 9-5 5-3h3v-2l6-5 4-3 3 1-5 6-10 7h-2v2h-2l-2 5-9 7v4h7 4 7l5-3 5-1 2 5 6 2 2 6-68-1 5-4 2-2 5-2 16-12-1-2-6 2-6-1-5 1v-8l6-6h2l1-3 15-11 9-5h2v-2z" fill="#0D032A"/>
<path transform="translate(984,417)" d="m0 0h2l-1 3-5 2v3l4-1v6l2 1v3l-12 9-13 10-6 4-4 5 4-1 7-6 7-3 4-3h3l-1 4-10 7-6 5h-2l-1 3-12 9-3 3h-3l1-6 1-3-1-3v-9l6-7 11-7h2l-1-2-5 3h-3l-1 3h-3l1-6h-4v-2l12-9h4l-2 4-5 5 5-2 10-7 6-3-1-3 8-6z" fill="#5E03CB"/>
<path transform="translate(1157,573)" d="m0 0h3l-1 5-6 4v5l5-1 1 2h-2v2h3l1 5-2 4-12 7-8 5-3 3-5 1v-6h-3l-1 5h-5l-1-1v-6l-3 1-4-4v-5h2l1-5 3-1v-2l13-3 10-9 7-2z" fill="#5404B9"/>
<path transform="translate(1153,429)" d="m0 0h5l1 2-1 2 7-3 2 7 4 2-2 1 1 1 2 1-1 2 4-1 2-2 3-1-1 5v7l1 1-1 14h-5l-1-2-3-1 1 4 2 1-2 6-2 1v-2h-2v4h-3l-3-3v-2l-2-1 1-2-4 1-1-2 1-2h3l-3-21-4-9v-6z" fill="#463DF5"/>
<path transform="translate(982,614)" d="m0 0h1l2 11 1 2v11l-4 3h-2v2l-11 8-6 4-3 3-6 3-5 4-10 7h-2l1-10 13-12 12-9 4-4h2v-2l-8 6-8 4-2 2-3-1 13-11 6-3 3-3h2v-2l6-3h2v-2h-2l2-6z" fill="#0C032A"/>
<path transform="translate(1450,372)" d="m0 0h21l22 1v1h-43l-1 2-8 1-13 1-10 2-6 7-1 2h-2l-1 3v7l2 6-5 1-1 2-2-1-1-10-4-7-7-4 1-5-5-2v-5z" fill="#3051E9"/>
<path transform="translate(599,368)" d="m0 0h30l6 4 2 2 5 2 4 3-5 1-9 1-1 3v-2h-2l2 4 2 7v3h-2l-2-7-5-1-1-4-24-2-4-6-1-5z" fill="#B103B7"/>
<path transform="translate(1169,506)" d="m0 0 3 1v5l7 2v5l-5 10-3 2h-5v-6l-2-2-4 1-2-3-10-1-12-1-2-4-2-1v6l-5 3-2-1v-4l-5 1-1 3h-3l1-6 9-3 5-5 3-1h5l-1 5h2v-3h9v3l2 1v-4h9l-2 4-2 3 5-2h5v-7z" fill="#5B01CA"/>
<path transform="translate(660,473)" d="m0 0h2l-1 7-10 38-4 8-3 10-10 25-5 15-5 21-3 10-2 5h-2l1-7 3-11 3-8 4-18 4-10 3-9 2-12-4-1 3-11 4-9 2-10 4 2h5l1-9 4-15 3-7z" fill="#9108BB"/>
<path transform="translate(1380,717)" d="m0 0h2l2 6 7 1v2l5 1 3 3-21 2h-36l-3-4 1-5 5-2 29-3z" fill="#453EF4"/>
<path transform="translate(507,412)" d="m0 0 8 1 3 5 2 10-4-1-1-1v5h5l3-1 1 4-5 2h-13l1-4 5-2v-2h-6l-2-1-1 6-4 8-1 1-8-1-3-1v4l-4-2-3-5 1-2 7-3 3-7 9-6 6-5z" fill="#0F032D"/>
<path transform="translate(704,434)" d="m0 0 2 1-4 8-3 1-1 3 5-2 1-2 5-1 1 3 2 1-1 5-7 3v3l4 4-2 4-3 4h-4v4l-8 4 2-5-2-1-2-8h4l1-3h4l-1-3-6-2 2-1v-2l-4 1-1 3h-9v2l-3-1-1-9 3-1 5-1 4-2h5v-2h7l2-4z" fill="#6704BE"/>
<path transform="translate(1692,717)" d="m0 0 4 1 3 3-1 13-2-1h-1l-5 1-17 3-10 1-4 1h-10l-21-1-9-1h-6l-3-3h3l1-3h32l9-1 3 2h3l1-2 10 2 2-3h14l5 1-1-3z" fill="#070218"/>
<path transform="translate(320,273)" d="m0 0h1v5l-4 4h-3l-2 6-1 2h-2l-1 7-7 5h-2l-1 8-5 1v7l-2 4-3 2v2h-3v3l-5 3h-2l-2 7-5 5h-2l-1 4h-2l-2 5-6 4-3-1 6-5 2-6-1-3 6-5 8-5v-8l6-2 2-2h-2v-7h2l2-5h2v-3l7-2 2-5 9-4 1-3-3-2v-2h3l5-9h2l1-2 4-1z" fill="#380F6C"/>
<path transform="translate(70,555)" d="m0 0h3v7l-2 1-2 4-5 3-1 2-1 9-5 6-1 2h-2l1 5-3 1-1 3h-4l-1 3-5 4-2 4-7-1-5 1 1-4 9-3-1-4h2v-2l7-1-1-12 6-10 5 1 1-8 2-1 2-3 8 1 1-5-1-2z" fill="#350E68"/>
<path transform="translate(1630,361)" d="m0 0h7l6 1v1l17-1h11l9 5 3 5v20l-3 3-2-10-1-13-6-3-5-1h-20l-7 2-40-2 4-3 4-2 18-1z" fill="#070217"/>
<path transform="translate(1177,581)" d="m0 0h1v11l5-1-1 4-3 7v9l1 5-4-2-3-8-2-1v4h2l1 4-5 6h1v5l-7 1h-2l-2 3-2-4h-4l1-4 5-4 1-4v-6l2-2v-3l-2-1 1-4 2-2 6 2-1 3 4-1 1-2 2 1-1-4-2-2v-5l2-1 1-3z" fill="#473AF5"/>
<path transform="translate(726,524)" d="m0 0 8 1 1 3-1 5-3 3-1 6h-2v9l-3-1h-26l1-3h2v-2l5-1 2-4 2-3-1-1v-5l1 3 5-2 4-7z" fill="#10042F"/>
<path transform="translate(981,523)" d="m0 0v3l-3 4 4 1 2 3-4 2-3 3h-2l2 4-4 2-4 4h-3l1-3 5-4-8 2-6 5h-3l2-4v-1l-4 3h-3l2 5-1 4-10 6h-5l2-5 1-5 5-3v-2h-3l2-5 6 1v2h2l1-3 7-4h3v-2l3-3h-3v-2h8l8-5z" fill="#0F042F"/>
<path transform="translate(983,660)" d="m0 0 5 2 1 4-1 3 2 6-5 1-5 3-2 3h-2v2l-7 3-7 5h-3l-2-3-3 2h-7l1-5 5-2 3-3 7-3 9-6 6-2 1-4z" fill="#6402D1"/>
<path transform="translate(1471,445)" d="m0 0h3l-1 6-12 6-2 3v4l7-4h3v5l-5 4-11 1-2 4h-2v2l-9 4-3 5-7 1-2 3 4-1v2h-7l-1-7 7-5 1-4 7-2 2-4 12-7 4-4h2l1-3z" fill="#0E032D"/>
<path transform="translate(1692,564)" d="m0 0 4 2 1 2v29l-2 5-1 13-2 13-2 7-3-2v-38l4-5-3-3 2-13 1-1z" fill="#070216"/>
<path transform="translate(986,432)" d="m0 0h1v6l-3 3-2 9h3l-1 3h-2l-12 9-18 13-10 7-3 1-1-3 5-3 22-18 8-6h2l1-4-6 3-4 3-5 2-8 6-3 1 2-5 7-6 14-10 11-9h2z" fill="#5D03CA"/>
<path transform="translate(984,432)" d="m0 0h2v2l-12 9-13 10-6 4-4 5 4-1 7-6 7-3 4-3h3l-1 4-10 7-6 5h-2l-1 3-12 9-3 3h-3l1-6 7-7h-5v-4h3l2-4 9-8 4-1 1-3 13-9h3v-2z" fill="#0E032C"/>
<path transform="translate(537,485)" d="m0 0 4 2 1 7-10 6-4 6-9 3-11 1v2h4l-2 4-2 2-7-13v-3l5-3h3l1 2 6-1 5-4 4-4 8-4z" fill="#0E032C"/>
<path transform="translate(539,499)" d="m0 0h4l1 2 4 1v9h-7l4 3h-18v2l9 1h6l4 3-10 4-2 1-2-2-8 5-4 4-4-1 5-5 3-5h-11v-3l5-4 4-1v4l7-6h2l1-2h-8v-1l6-2 5-4z" fill="#9208BB"/>
<path transform="translate(973,647)" d="m0 0 2 1-2 4-1 8 2 1-14 8-12 9-1 2h-2v-3l-5 2h-3l-1-11 1 4 9-6 8-6 8-5 5-4z" fill="#5E03CB"/>
<path transform="translate(965,492)" d="m0 0 5 2-6 7-9 6-1 15 8-4 10-6 4-2-2 4-4 3-7 3-5 5h-2v2l-7 2-1 3-5 3h-2l1-3 5-3 2-7-4-2-5 1-1-3 1-2 4-1-2-1 1-5 7-4v-4l-7 5h-3v-9h2v5l5-3h5l1 4 11-6-2-2z" fill="#5603BD"/>
<path transform="translate(752,593)" d="m0 0 4 2 1 3 4 2v4l-4 1-1-5h-2l-1 5 1 5-6 1-2 7h-2v4l-5 1h-15l-2-8 1-6 3-1 2 7v5h5l-3-5 3-3 2-4 5 1 3-4h2l3-6 5-1z" fill="#64159B"/>
<path transform="translate(557,512)" d="m0 0h3l2 5 3 1 2 9 1 7h2v5l-3 2-2 3-1 3v2l-3-1v-3l-5 2h-3v-17l2-3-2-10 4 1z" fill="#AD04B6"/>
<path transform="translate(527,514)" d="m0 0h21l1 2 5 2 2 10-16 1v7l-10-3-2 5-4 3-2 5-4-2 1-5 6-7 5-3 5-5 5-3 5-1-3-2h-9l-7-1z" fill="#10042F"/>
<path transform="translate(976,605)" d="m0 0 3 2h4l-1 4-9 7-8 8-6 4-7 8-6 4-6 5h-2l1-6-2-1 4-2 7-9 11-8 5-6 7-5z" fill="#6704D0"/>
<path transform="translate(983,451)" d="m0 0 1 3-3 4h4l-1 5-11 3v5l-6 3h-2v2h-3v2l-10 5-5 4-1 2-5-2-3-1 2-4 9-6 18-13 14-10z" fill="#5B03C5"/>
<path transform="translate(1494,730)" d="m0 0h48l42 1 1 3-4 1-31 1-12-1-46-1-1-3z" fill="#060213"/>
<path transform="translate(1154,684)" d="m0 0h6l1 2-4 5-2 3-8 1-3 2-6-1v3h2v3l-7 1-1 1h-5v2l-12 5-1 1-9 1-5 1v-2l4-3h6l8-6 5-4 11-4 9-6 9-3z" fill="#0F032D"/>
<path transform="translate(1171,605)" d="m0 0 3 1 3 8 3 2 1-2 1 6-4 5v10l3 2-1 5-5-5-8 2-4-2-2-6v-7l2-2v3l7-1-2-3 1-4 4-4v-4h-2z" fill="#6002D6"/>
<path transform="translate(1164,522)" d="m0 0 3 2-1 7 8-2 1-3h2v7l-2 7 6-1 1 5-2 1-1 8-1-4-4-1 1-2-3-1-1 7h-6l-3-3 2-2-2-7 1-7-3-1 2-3v-5z" fill="#463EF7"/>
<path transform="translate(847,444)" d="m0 0h1v5l-4 10-5 13-6 15-16 53-4 13-2 7-2 6h-1v-6l4-15 3-12 4-11 5-16 4-15 6-18 3-7h2l1-5 4-12z" fill="#100430"/>
<path transform="translate(1471,595)" d="m0 0h2l-1 13 1 4-4 4 1 5-4 7-7 2 3-8 3-3-2-1-1-1-4 6-2-1 1-2h-5l1-5 5-6h5l1-1-4-1 1-3 5-2 4-5z" fill="#2D46D0"/>
<path transform="translate(1620,712)" d="m0 0h2l-1 4-5 4-16 1-5 1h-18l-14-1 3-3 10-3 18-2 5 4 5-1 3-2 3 3 5-1z" fill="#0F0429"/>
<path transform="translate(1177,480)" d="m0 0h5l-2 4v8l2 6-3 4h-2v11l-3 1-3-3 1-4h-2l1-4 3-3 1-3-4-4-2 1-3 3-4-1v-3l1-4-2-2 1-4 2-1 1 3 2-1v2l3-1v3 2l2-1 2-5z" fill="#4739F2"/>
<path transform="translate(534,468)" d="m0 0h2l-1 4-5 6-2 2 4-1 3-3 2 1-3 4 1 3-6 5-9 3-4 4-1-4 8-5 3-3 1-3h-3l-1 4-7 5-6 2-3 4h-3l-2-6 3-1 2 2 3-4-2-1 3-3h3v2h2l-1-4 6-2 5-4z" fill="#110431"/>
<path transform="translate(982,610)" d="m0 0 2 3v6l-2-4-4 7h2v2l-6 3h-2v2l-6 5-6 3-10 8-1-2-2-1h2l-1-3 5-3 7-8 8-6 8-8z" fill="#6003CE"/>
<path transform="translate(1132,507)" d="m0 0h7l-1 5h2v-3h9v3l2 1v-4h9l-2 4-4 2-9 1-1-1-1 4h-7l-2-4-2-1v6l-5 3-2-1v-4l-5 1-1 3h-3l1-6 9-3 5-5z" fill="#0C032A"/>
<path transform="translate(590,673)" d="m0 0h4v6l-2 2h-3v6l-7 9 4-1 2-4h2l-1 6-3 8-9-5-4-7v-2l3 1 3-2 3-6 1-6h3l2-4z" fill="#100430"/>
<path transform="translate(567,563)" d="m0 0 4 1 1 4-2 6-7 3-2 2-6 2h-4l-1-2-2 4-7 2-2 4-3-1 2-5 7-3 4-7 5-2 6-5v3l-1 2 2-1 3-5z" fill="#0E032C"/>
<path transform="translate(1161,556)" d="m0 0h5l-1 4 4 1-2 7 1 8 2 1-3 2v4l-2 3-5 1v-15l-5-4v-5l-9 1 1-3 8-1 1-2z" fill="#463EF8"/>
<path transform="translate(473,392)" d="m0 0h22v2h-5v2h-2v4h-4l-1 4-4 1-2 4-7-2-1-3h-2l1-6z" fill="#1C063E"/>
<path transform="translate(558,545)" d="m0 0h3l1 3 4 2-2 4-7 1-1 3-7 3-2 4-8 6-10-1v-4l6-2v3l7-4-2-3 5-6h2l1 3 2-5z" fill="#110430"/>
<path transform="translate(976,427)" d="m0 0h3l-1 3-3 2-3 5-6 2v2l-6 4h-2l-1-2-5 3h-3l-1 3h-3l1-6h-4v-2l12-9h4l-2 4-5 5 5-2 10-7z" fill="#11042D"/>
<path transform="translate(729,532)" d="m0 0h5l-3 4-1 6h-2v9l-3-1h-23l4-2 3-1v-4l10-6z" fill="#5F1592"/>
<path transform="translate(1177,532)" d="m0 0h29v1l-8 1-1 3h-2l-2 4 3 2v2l3 1-9 1-1-1-9-1v-3l1-2h-6v-6z" fill="#5E02CF"/>
<path transform="translate(1156,592)" d="m0 0 5 1-2 6-12 7-8 5-3 3-5 1-1-6-2-2 4-4 3 2 1-3 7-1 4-2 1-3z" fill="#0C032A"/>
<path transform="translate(979,536)" d="m0 0 2 4 1 4-7 2-2 4-8 6-4 2v-2l2-1-2-3h-2v2l-10 5-4 3-4-1 10-6-1-8 7-4h3l-5 6 6-3 5-4 7-1-4 5-3 3 5-2 5-5-1-3 4-1z" fill="#5909B7"/>
<path transform="translate(1466,647)" d="m0 0 3 1-5 5-7 3-6 4-1 2-7 3-5 3-8 2-2 4-5 3 1-4 8-7 5-4 3-3 5-2 4-4 7-4z" fill="#100430"/>
<path transform="translate(540,494)" d="m0 0 2 1-2 2 2 2-9 5-4 4 3 1-1 3-5 1-2 4h-2v-4l-8 5-1 3-5-1-2-1 1-4 1 2 4-5h-4v-2l11-2 5-2h4l2-5 3-3z" fill="#8D09AC"/>
<path transform="translate(594,571)" d="m0 0h1l3 15 4 10 4 5-4-2h-2l-1 4-5-1-3-4v-2l-5-2-4-4 3-6 5 2v2l3-1 1-1z" fill="#8208AA"/>
<path transform="translate(524,481)" d="m0 0h3l-1 4-7 6-4 1 1 3 3-1 1-3 10-4 3-3h2l1-2 1 4-7 5-7 3-4 5-5 3-5-1v-2l-4 1-3-1-1-3 3-3v3h3l2-4 2-2 7-2 5-4z" fill="#9507BE"/>
<path transform="translate(959,538)" d="m0 0h3v5l-5 1-4 3h-3l2 5-1 4-10 6h-5l2-5 1-5 5-3v-2h-3l2-5 6 1v2h2l1-3z" fill="#130535"/>
<path transform="translate(565,552)" d="m0 0h1l2 7 4 3-1 3-4-1-4 3-2 4h-2l1-4-6 4 1-4-6 4h-6l5-5 5-2 1-4-1-2h3l1-4 7-1z" fill="#850CB1"/>
<path transform="translate(982,614)" d="m0 0h1l2 11 1 6-1-3-12 7-7 2-5 4-8 4-2 2-3-1 13-11 6-3 3-3h2v-2l6-3h2v-2h-2l2-6z" fill="#5D07BE"/>
<path transform="translate(1667,566)" d="m0 0 2 3v25l-2 16-4 6h-2v-8l3-15 1-16v-10z" fill="#060213"/>
<path transform="translate(645,528)" d="m0 0 1 3-5 12-7 18-5 15-5 21-3 10-2 5h-2l1-7 3-11 3-8 4-18 4-10 3-9 2-9h2l2-4z" fill="#0F032D"/>
<path transform="translate(539,499)" d="m0 0h4l1 2 4 1v9h-7l4 3h-17l4-5h-8v-1l6-2 5-4z" fill="#9409BD"/>
<path transform="translate(1337,724)" d="m0 0 1 4h2l3 4h37v2h-3v2l-2 1-24 1-10-2-6-4v-6z" fill="#060213"/>
<path transform="translate(983,660)" d="m0 0 5 2 1 4-1 3 2 6-6 1v-2h-5l-2 4-6 3h-3l1-5-2-1 9-5h2l1-4z" fill="#5B06C1"/>
<path transform="translate(550,559)" d="m0 0 5 1-1 4-2 2-5 2-3 2 7-1 4-2-2 6-4 1-4 7-3 1v-3l-7-3-1-4-3-1 2-1h6l6-5h2l1-4z" fill="#880AB3"/>
<path transform="translate(1159,576)" d="m0 0h1l1 10 7-1 1 6 3-1 4 5-1 2-7 2-1-3-4-1-3 2v-7h-3l1-3-4-1-1 2-1-1v-5l3-3 3-1z" fill="#5B0AD4"/>
<path transform="translate(743,606)" d="m0 0 5 2v2l-9 3-4 7h8l-1 3h-18l-2-8 1-6 3-1 2 7v5h5l-3-5 3-3 2-4 5 1z" fill="#0C032A"/>
<path transform="translate(1695,679)" d="m0 0h3l1 4v8l1 2v6l-2 3v7l-5 2-3-6 1-6 3-5-2-5-1-5 4-1z" fill="#070217"/>
<path transform="translate(965,492)" d="m0 0 5 2-6 7-9 6-2 7h-2v-2l-8 1 2-5 5-3v-4l-7 5h-3v-9h2v5l5-3h5l1 4 11-6-2-2z" fill="#0C0327"/>
<path transform="translate(949,529)" d="m0 0 1 2h7l1 2-1 2 4-1 1 4-10 5-1 2h-2v-2l-4 1-2-1-2 2 1-4h2v-2l-2-2 2-4 4-2z" fill="#6001D1"/>
<path transform="translate(1578,441)" d="m0 0 2 4-1 20-1 8v17l-1 8-3 3-1-6v-9l2-26 2-8z" fill="#1E094A"/>
<path transform="translate(514,425)" d="m0 0 3 2 6 1 3 5-1 4h-2l-1 6-11 7-4 5h-3l1-5 7-4 3-5 2-3v-2h-5v2h-5l3-1v-2h11l2-1v-4l-3 2h-5l-1-1z" fill="#9707BF"/>
<path transform="translate(1468,678)" d="m0 0 2 1-4 5-12 7-11 7-12 6-7 6-4 1 5-5 7-6 5-4 7-3 3-3 3-1v-4l11-2z" fill="#120531"/>
<path transform="translate(692,443)" d="m0 0h5l-1 2-3 1-1 5-3 2-1 3h-9v2l-3-1-1-9 3-1 5-1z" fill="#0D032B"/>
<path transform="translate(1178,620)" d="m0 0h2l-2 5v10l3 2-1 5-5-5-8 2-4-2-1-6 2-2 7 1 1-6 5-3z" fill="#4335E2"/>
<path transform="translate(984,432)" d="m0 0h2v2l-12 9-13 10-6 4-5 4-1-3 6-7 4-1 1-3 13-9h3v-2z" fill="#0B0322"/>
<path transform="translate(981,608)" d="m0 0h2l-2 4-8 6-8 8-6 4-7 8-6 4-6 5h-2l2-4 8-6 5-4 7-9 8-6 5-5 3-4z" fill="#12042F"/>
<path transform="translate(983,451)" d="m0 0 1 3-8 7-13 9-11 9-4 4-6 2-4-1 15-11 28-20z" fill="#0E032C"/>
<path transform="translate(412,671)" d="m0 0 4 1 2 4-2 2h-5v2l2 1v2h-2v3l-11 3-3-4 5-5 9-7z" fill="#110431"/>
<path transform="translate(607,647)" d="m0 0h1v11l2 1 3 2 1-9h1v10l-2 22h-1l-1-11h-2l-4 3v-14l1-3z" fill="#880AB3"/>
<path transform="translate(1157,573)" d="m0 0h3l-1 5-6 4-1 5-8 1-4-1h-2v2h-2l1-4 6-6 7-2z" fill="#0D032A"/>
<path transform="translate(1132,514)" d="m0 0 3 1 1 3 7 1-2 3-1 3-8-1-11 2-4 1-4-4 1-3h2v2l3-1 3-3 4-1v5l5-2z" fill="#5E02CE"/>
<path transform="translate(1133,588)" d="m0 0h2l1 2 3 1v2l-7 2-2 2h-6v2l-5 3h-4l1-6 2-3h2v-2z" fill="#0E032D"/>
<path transform="translate(660,473)" d="m0 0h2l-1 7-10 38-3 6h-2l4-16 5-22 3-5z" fill="#0D032B"/>
<path transform="translate(397,667)" d="m0 0 3 2 7 1-3 7-8 2-4 4-1 2h-3l1-4 2-1 1-3h-6l5-4z" fill="#6B0A94"/>
<path transform="translate(763,685)" d="m0 0h2l-2 10-3 6h-2l-1 4h-5l-2-7 3-3 3-1 3-6z" fill="#0D032A"/>
<path transform="translate(1680,455)" d="m0 0 4 2v21l-1 5 1 7-1 7-5 1 1-7 2-6z" fill="#060213"/>
<path transform="translate(757,654)" d="m0 0h6l5 3-4 8-6 1h-8l1 5-7 1-2 5-1-3 9-11h10v-4l-6 2 1-5z" fill="#10042E"/>
<path transform="translate(1007,609)" d="m0 0h16l5 2-3 6-4 2v-5h-6l-2 4-3 1-2-4v-2l-4-3z" fill="#6302D1"/>
<path transform="translate(567,584)" d="m0 0 9 1 2 1-3 6-7 3h-4l-6-2v-3l8-4z" fill="#720999"/>
<path transform="translate(605,647)" d="m0 0h2v12l-1 3v14l1 4-3 6-3 7-1 5h-2l2-11 3-18 1-17z" fill="#610C8C"/>
<path transform="translate(1354,715)" d="m0 0h13v2h6v1l-7 2-26 2 2-4z" fill="#070217"/>
<path transform="translate(584,600)" d="m0 0 3 1-1 4-8 5h-10l-1 4-5 2-7 6-5 4 1-4 5-4h2l2-4 15-11 2 2h5z" fill="#1A063E"/>
<path transform="translate(704,434)" d="m0 0 2 1-4 8-3 1-1 3h5l-1 4h-2l-2 4-6 1-1-2h2v-2l-3-1 2-2 1-4 3-1-4-2h7l2-4z" fill="#551387"/>
<path transform="translate(1416,712)" d="m0 0 2 1-2 4 2 2 8 1v-2h2v2l8-1 3-4h3l2 7h-21l-18-1 2-2 5-3z" fill="#0F042B"/>
<path transform="translate(982,610)" d="m0 0 2 3v6l-2-4-4 7h2v2l-5 2h-3l-6 1v-3l10-10z" fill="#5F03CE"/>
<path transform="translate(979,591)" d="m0 0 2 1-1 4-1 3-10 3-10 6-4 2 1-4 3-1v-2l9-6z" fill="#5F05C8"/>
<path transform="translate(723,539)" d="m0 0h6l-1 12-3-1h-12v-5l1-1 7 1-1-4z" fill="#0D032B"/>
<path transform="translate(1604,399)" d="m0 0 6 3 6 4 3 4-1 6-4-1-4-2-6-8-1-5z" fill="#080217"/>
<path transform="translate(847,444)" d="m0 0h1v5l-4 10-5 13-6 15-2 3-1-1v-5l3-7 4-11h2l1-5 4-12z" fill="#100431"/>
<path transform="translate(739,626)" d="m0 0h2v2l9 1 1 3v4l-5-1v-2l-5-1v5l-4-1-4-3 1-4z" fill="#5E158E"/>
<path transform="translate(673,411)" d="m0 0h4l1 5-3 1-6 9h-6l-1-5 6-2-2-4z" fill="#0E032B"/>
<path transform="translate(986,678)" d="m0 0v3l-1 2 3 1-1 3-8 6h-5-3l-2 1 1-4h2v-2l13-9z" fill="#5B05C5"/>
<path transform="translate(1455,607)" d="m0 0 2 1-5 4-1 2h-2l-2 4-2 2-10 4-4 1 4-4 2-5 15-8z" fill="#0E032C"/>
<path transform="translate(956,623)" d="m0 0 2 1-4 4 2 2-5 5-9 8-3 1v-3l-2-1 4-2 7-9z" fill="#6C06CD"/>
<path transform="translate(566,574)" d="m0 0h4l-2 5-1 7-2 1-3-5-11 2-1 1h-7v-2h5l1-5 3 3 9-3z" fill="#9507BD"/>
<path transform="translate(752,593)" d="m0 0 4 2 1 3 4 2v4l-4 1-1-5h-2l-1 5 1 5-3-1v-3l-5-1 1-4 1-2 5-1z" fill="#19063F"/>
<path transform="translate(979,536)" d="m0 0 2 4 1 4-7 2-2 4-8 6-4 2v-2l2-1-2-3-2-1 5-2 2-2v2l5-2 5-5-1-3 4-1z" fill="#581597"/>
<path transform="translate(1554,378)" d="m0 0h11l-2 2-7 3-3 2h-17l-1-3 3-1 11-1z" fill="#060213"/>
<path transform="translate(961,679)" d="m0 0 2 1-2 2 3 1v3l-4 2-2 2h-3l-1 1h-7l1-5 5-2 3-3z" fill="#5907BC"/>
<path transform="translate(946,491)" d="m0 0 4 2v3h7l1-4 1 5h-3v2h2l-1 3-4 1-1-3h-5l-2 2h-3v-6z" fill="#6503D1"/>
<path transform="translate(973,449)" d="m0 0h3l-1 4-10 7-6 5-5 2v-4l8-8 7-3z" fill="#070219"/>
<path transform="translate(1400,624)" d="m0 0 4 2 2 6v7l-4 8h-2v-12l2-5h-3l-1-5z" fill="#0A031D"/>
<path transform="translate(963,519)" d="m0 0 2 1-2 5-2 2 1 2 3 2h-3v2h3l-1 3-7-1v-3l-7-1 1-3 5-1v-2z" fill="#6202D2"/>
<path transform="translate(489,495)" d="m0 0 4 2 2 4 2 9 5 8v2l-5-1-4-8-3-7z" fill="#100430"/>
<path transform="translate(1661,622)" d="m0 0h4v9l-3 8h-2v2l-4-2 3-12z" fill="#070215"/>
<path transform="translate(977,625)" d="m0 0 1 2h-3l-1 4-1 2-5 2-7 6-8 4-2 2-3-1 13-11 6-3 3-3h2v-2z" fill="#120433"/>
<path transform="translate(1020,712)" d="m0 0 13 3 32 2 7 1v1h-31l-15-3-6-3z" fill="#5706BD"/>
<path transform="translate(610,671)" d="m0 0 2 2v13l-2 4-4-2-2-3 2-7 1-4z" fill="#AF03BA"/>
<path transform="translate(1271,609)" d="m0 0h2l2 10 1 17-1 3h-2l-2-13z" fill="#070217"/>
<path transform="translate(511,474)" d="m0 0 2 1-5 5h2l1 4-2 2v4l-3 2-2-6h-6v-3l5-1 1-3z" fill="#7F0DAB"/>
<path transform="translate(954,389)" d="m0 0 3 1-11 9-5 2-3-1 1-2h-5l1-3 5-3h3v3l8-4z" fill="#3A097C"/>
<path transform="translate(1115,710)" d="m0 0 2 1-2 6-2 2-12-1-2-2 1-4v2l5-2 9-1z" fill="#6001D2"/>
<path transform="translate(358,574)" d="m0 0 3 1 1 4-5 4-7 3h-5l3-5 6-5z" fill="#130534"/>
<path transform="translate(1692,717)" d="m0 0 4 1 3 3-1 13-2-1h-1l-4-1-2-2h4l-1-3z" fill="#070216"/>
<path transform="translate(594,647)" d="m0 0h3v3l-4 2-2 6-1 1h-5l-1 6-1 1h-7l-1-3 7-2 3-7 6-3z" fill="#140536"/>
<path transform="translate(689,452)" d="m0 0h4l-1 3 7 1-1 4-4 1-1 2h-4l-1 3v-2h-2l-1-6 1-2h2z" fill="#9205C6"/>
<path transform="translate(683,404)" d="m0 0 4 2 2 4h4l-2 4-6 6-2-1v-6l-2-2v-2h-2l1-3z" fill="#5505A3"/>
<path transform="translate(320,273)" d="m0 0h1v5l-4 4h-3l-2 6-1 2h-2v3l-2-1-3-3v-2h3l5-9h2l1-2 4-1z" fill="#370E6B"/>
<path transform="translate(409,667)" d="m0 0h2l1 2 3 2h-3l-2 4-10 7-2 2v-3h-5l5-4h6l1-5v-3z" fill="#9708BF"/>
<path transform="translate(1112,721)" d="m0 0 4 1v2l41 1v1h-43v2h-5l-5-1-1-2 6-1z" fill="#5C03C8"/>
<path transform="translate(558,512)" d="m0 0h2l2 5 3 1 2 9 2 7-1 4-4-5-6-18z" fill="#130433"/>
<path transform="translate(717,555)" d="m0 0 1 2 10-1-1 3-8 4-5 4-5 5v-3l6-6-1-3-7 4-2 1 2-4 2-2 7-3z" fill="#1B073E"/>
<path transform="translate(955,431)" d="m0 0 3 1-2 4-5 5 1 2-5 2 1 4h-3l1-6h-4v-2l12-9z" fill="#560BB2"/>
<path transform="translate(651,493)" d="m0 0h1l1 8-2 7-8 1v-6l3-2 3-6z" fill="#A505B4"/>
<path transform="translate(523,413)" d="m0 0 3 1 3 7 5 10 3 7-1 4-5-6-5-13-3-7z" fill="#0F032C"/>
<path transform="translate(1088,723)" d="m0 0 10 2v1l-7 1-1 1h-14l-20 3-4-1 9-2 16-3z" fill="#5905C1"/>
<path transform="translate(707,442)" d="m0 0h2l1 3 2 1-1 5-9 2-5 4-2-1 7-6 1-3-3-1 3-1 1-2z" fill="#5B148F"/>
<path transform="translate(1155,656)" d="m0 0h5l1 5-7 5h-5l-5-2 1-2 8-3z" fill="#110431"/>
<path transform="translate(603,686)" d="m0 0 4 1 1 3-2 4-2 2-1 6-3 3-2-2-1-4 2-1 3-11z" fill="#9C05C3"/>
<path transform="translate(975,510)" d="m0 0v3l-5 4-7 3-5 5h-2v2l-7 2-1 3-5 3h-2l1-3 11-7 10-8 9-5z" fill="#140535"/>
<path transform="translate(1679,458)" d="m0 0h1l1 5 1 23-3 4-1-5v-26z" fill="#0E032D"/>
<path transform="translate(946,408)" d="m0 0 3 1-2 5-2 1 4-1 7-3 3-1-1 3-14 7-3 1v-4h-3l2-4 5-3z" fill="#35057A"/>
<path transform="translate(540,494)" d="m0 0 2 1-2 2 2 2-9 5-4 5v1h-7v-2l-2-1 8-1 2-5 3-3z" fill="#910AB8"/>
<path transform="translate(599,368)" d="m0 0h30l4 4-37-2z" fill="#810CB2"/>
<path transform="translate(1679,592)" d="m0 0h2l-3 25-2 11h-1v-7l1-5v-21z" fill="#17063C"/>
<path transform="translate(391,628)" d="m0 0 5 5v3l-6 1-7-1-3 2-3-1 10-7z" fill="#150537"/>
<path transform="translate(1149,671)" d="m0 0h5l-5 4-6 4-10 3-4-1 5-5 4-1 3 1v-2z" fill="#0D032B"/>
<path transform="translate(1164,503)" d="m0 0 5 1v3h-3v7l-10 2 4-8v-3l2-1 2 1z" fill="#473BF5"/>
<path transform="translate(494,500)" d="m0 0 5 1 6-1-4 2 3 9-4-1 1 6-3-3-3-5z" fill="#8E09B8"/>
<path transform="translate(980,472)" d="m0 0h3v2l-10 8h-2v2l-4 2h-3l-2 4-1-3 7-7 10-7z" fill="#0D0326"/>
<path transform="translate(1163,482)" d="m0 0 2 3 2-1v2l3-1v3l-1 2 2 2-5 5-4-1v-3l1-4-2-2 1-4z" fill="#463CF4"/>
<path transform="translate(1684,401)" d="m0 0 3 2v8l-5 5-2-2-2-7 3-2 1-3z" fill="#060213"/>
<path transform="translate(1577,568)" d="m0 0h3l3 14v10h-2l-3-12-1-5z" fill="#10042B"/>
<path transform="translate(1470,452)" d="m0 0 2 1-4 5 1 2-11 5 1-7 7-5z" fill="#2F52EA"/>
<path transform="translate(1666,645)" d="m0 0h2l-1 9-10 15-2-1 7-13v-7z" fill="#150738"/>
<path transform="translate(503,426)" d="m0 0 9 2v2l-5 3-1 3 4 1h-3v2l-7 1 2-7z" fill="#870CB3"/>
<path transform="translate(500,410)" d="m0 0 3 1-5 5-3 2-9-2 1-3h2v-2h8z" fill="#7A07A1"/>
<path transform="translate(1562,448)" d="m0 0 5 1v17l-2 3-4-16z" fill="#060213"/>
<path transform="translate(569,534)" d="m0 0h1v5l-3 2-2 3-1 3v2l-3-1v-3l-5 2h-3l1-6 2 3 3-3 1-2h5l2-3 1 1z" fill="#8E09B9"/>
<path transform="translate(983,451)" d="m0 0 1 3-8 7-13 9-4 1 1-3 17-12z" fill="#0C0328"/>
<path transform="translate(1336,413)" d="m0 0h7l-2 4-6 5-7 2 2-5z" fill="#0E032D"/>
<path transform="translate(1495,660)" d="m0 0h2v7l-4 7h-3l-2-6 1-3z" fill="#080218"/>
<path transform="translate(963,660)" d="m0 0 2 1-8 6-9 7-3 3-6 1 6-7h2v-2l15-8z" fill="#140536"/>
<path transform="translate(645,528)" d="m0 0 1 3-10 24h-3l3-9 1-6h2l2-4z" fill="#140536"/>
<path transform="translate(960,624)" d="m0 0 4 2-9 8-5 5-10 8h-2l2-4 8-6 5-4z" fill="#16063A"/>
<path transform="translate(338,565)" d="m0 0h5l1 6-7 3-5 2-3-1v-2h5l2-5z" fill="#1D0740"/>
<path transform="translate(1528,553)" d="m0 0 7 1 4 4-1 4-3-3 3 4v2l-5-1-3-5-2-3z" fill="#070216"/>
<path transform="translate(962,477)" d="m0 0 2 1-4 4-7 3-3 3h4l-2 4-5 2 1-5h-2l2-4 11-7z" fill="#17063B"/>
<path transform="translate(1157,457)" d="m0 0 2 1v9h-3v3l6-1-2 5-8-2 1-7z" fill="#5D01CC"/>
<path transform="translate(727,510)" d="m0 0h2l2 4v3l-8 3-5-1 1-3 6-5z" fill="#0C0329"/>
<path transform="translate(1151,623)" d="m0 0h6l2 2-4 4h-5l-2 3h-2l-2-5 3-3z" fill="#5E01CF"/>
<path transform="translate(992,540)" d="m0 0h3v21h-2l-2-6v-8z" fill="#0F032E"/>
<path transform="translate(1125,517)" d="m0 0h1l-1 7-5 3-4-1-3-3 1-3h2v2l3-1 3-3z" fill="#5705BE"/>
<path transform="translate(952,393)" d="m0 0 1 3-2 3 2 2-4 2-1 3-3 2-3-1 2-2v-3l-3-2 8-4z" fill="#4903A2"/>
<path transform="translate(735,527)" d="m0 0h7l2 4-4 5v1h-6z" fill="#9D04C5"/>
<path transform="translate(974,489)" d="m0 0 3 1-2 4 8-2-5 5-7 4-2-1 2-4-2-1 1-4z" fill="#450396"/>
<path transform="translate(1177,645)" d="m0 0h2v14l3 4-1 5h-2l-2-7-1-4h-2l-2-5h3l1-5z" fill="#4932E6"/>
<path transform="translate(1578,441)" d="m0 0 2 4-1 20-3 7h-1v-12l2-8z" fill="#21094C"/>
<path transform="translate(807,566)" d="m0 0 1 4-5 15-2 9-3 6-1-4 2-9 4-9 3-11z" fill="#0F032D"/>
<path transform="translate(865,414)" d="m0 0h2l-2 5-5 10-2 5-2 1-1-2v-6l9-11z" fill="#120433"/>
<path transform="translate(926,601)" d="m0 0h1l2 14v5l-3 1-2-4v-13z" fill="#0D032A"/>
<path transform="translate(507,466)" d="m0 0 1 3h3v2l-8 2-2 3-4 1-2 4h-3l1-5 2-3 7-2 4-1z" fill="#1F0741"/>
<path transform="translate(724,608)" d="m0 0h2l3 12 1 3h-6l-2-8 1-6z" fill="#10042E"/>
<path transform="translate(1415,590)" d="m0 0 4 1-1 17-2 5-2-4 1-16z" fill="#20094A"/>
<path transform="translate(549,532)" d="m0 0h2l3 8-1 6-4 5-4-2 3-5 5-1v-2h-3z" fill="#110431"/>
<path transform="translate(402,680)" d="m0 0m-2 1 10 1 1 4-11 3-3-4z" fill="#1A063E"/>
<path transform="translate(519,508)" d="m0 0h3v2l10-1-1 3-5 1-2 4h-2v-4l-6 2 1-3h2z" fill="#9508BD"/>
<path transform="translate(1e3 623)" d="m0 0h4l-1 3-2-1v5l6-2 1-3 4-2h3v2l-6 3-3 4h-2l-2 6-2-4z" fill="#4B0DA0"/>
<path transform="translate(1471,445)" d="m0 0h3l-1 6-12 6-2-2z" fill="#120535"/>
<path transform="translate(1501,382)" d="m0 0h6l-5 5-8 4h-3l2-4 2-3z" fill="#070217"/>
<path transform="translate(404,670)" d="m0 0 3 1-3 6-8 2-4 4-1 2h-3l1-4 11-8z" fill="#420F6B"/>
<path transform="translate(1458,609)" d="m0 0h7v2l-6 5-4 4h-3l1-5z" fill="#0E032C"/>
<path transform="translate(958,473)" d="m0 0m-1 1m-2 1 2 1-4 4 1 2-7 5-1 2-5-2-3-2 10-3z" fill="#5907BE"/>
<path transform="translate(518,441)" d="m0 0h4l-1 3-10 6-4 5h-3l1-5 8-5z" fill="#19063B"/>
<path transform="translate(539,499)" d="m0 0 3 1-3 6h-5l2 4-3 1v-3l-9 1v-1l6-2 5-4z" fill="#19063D"/>
<path transform="translate(679,456)" d="m0 0h7v8h2l1 6h-3l1-4h-2l-3-3v-3l-6-1 1-2 2 1z" fill="#56118A"/>
<path transform="translate(970,426)" d="m0 0 1 2 2 1-4 3-11 6-5 4-3-1 7-7 6-2 6-4z" fill="#5F03CF"/>
<path transform="translate(1439,715)" d="m0 0h3l2 7h-14l-4-1v-3h2v2l8-1z" fill="#0C0327"/>
<path transform="translate(1016,609)" d="m0 0h7l5 2-3 6-4 2v-5l-3-1v-3z" fill="#5806BF"/>
<path transform="translate(1404,591)" d="m0 0h4v12l-2 7h-1l-1-9z" fill="#0C0321"/>
<path transform="translate(714,559)" d="m0 0 2 1-1 4-6 6-2 3-1-7 1-3z" fill="#700BC3"/>
<path transform="translate(814,540)" d="m0 0h2l-2 10-2 9-3 7h-1v-6l4-15z" fill="#130434"/>
<path transform="translate(729,532)" d="m0 0h5l-3 4-1 6-1-3-9 1v-4l8-3z" fill="#6A14A7"/>
<path transform="translate(1681,483)" d="m0 0h2l1 7-1 7-5 1 1-7 2-6z" fill="#080217"/>
<path transform="translate(1133,375)" d="m0 0h33l-1 2-10 1h-14l-8-2z" fill="#5C03C9"/>
<path transform="translate(584,600)" d="m0 0 3 1-1 4-8 5h-7l3-5h8z" fill="#3A0D65"/>
<path transform="translate(936,584)" d="m0 0 1 3-1 2 9-4 4 1h-2l-1 9-2 2-2-4-7-3z" fill="#5B07BE"/>
<path transform="translate(560,558)" d="m0 0h2l-2 4h-2l-2 4-7 5h-6l5-5 5-2z" fill="#19063E"/>
<path transform="translate(524,481)" d="m0 0h3l-1 4-7 6-4 1 1 3h3l-2 2h-3v-5l-4-1 9-4 4-3z" fill="#661697"/>
<path transform="translate(1262,448)" d="m0 0 1 3-1 18-2 6h-1v-11l1-15z" fill="#0F042E"/>
<path transform="translate(963,434)" d="m0 0 2 1-6 7-6 3-4 1v2l-3-1 4-4z" fill="#0B0321"/>
<path transform="translate(605,647)" d="m0 0h2v12l-2 12-1 7h-1l1-26z" fill="#10042F"/>
<path transform="translate(1177,581)" d="m0 0h1v13h-3l-3-3v-5l2-1 1-3z" fill="#4540FA"/>
<path transform="translate(965,492)" d="m0 0 5 2-6 7-6 4-3-1 3-4 6-3-2-2z" fill="#100430"/>
<path transform="translate(955,667)" d="m0 0h2v2l2 1-11 8-1 2h-2l2-6z" fill="#5E06C4"/>
<path transform="translate(399,624)" d="m0 0 3 1 5 8 5 6v2l-5-2-7-10z" fill="#1B063E"/>
<path transform="translate(708,604)" d="m0 0 3 1 4 9 2 7 1 4h-3l-6-18z" fill="#0E0329"/>
<path transform="translate(1162,415)" d="m0 0 2 1-1 7-5-1h-3v5l-3-1v-5l4-3z" fill="#453FF6"/>
<path transform="translate(0)" d="m0 0h11l-1 5h-10z" fill="#0C0329"/>
<path transform="translate(774,685)" d="m0 0h2l-2 10-3 6h-1v-11l2-4z" fill="#0C0329"/>
<path transform="translate(976,605)" d="m0 0 3 2 4 1-7 2-5 6h-2l-1 2 1-6 5-6z" fill="#5D05C9"/>
<path transform="translate(950,518)" d="m0 0h4v4l4-2-2 4-8 4v-9z" fill="#5304B5"/>
<path transform="translate(981,673)" d="m0 0 3 1v3l-4 2-2 3-9 1 5-5 4-2z" fill="#7101DD"/>
<path transform="translate(974,624)" d="m0 0 2 1-4 2v2l-5 4h-3l-1-7 10-1z" fill="#7201DD"/>
<path transform="translate(956,623)" d="m0 0 2 1-4 4 2 2-5 5-1-2-3 1v-4z" fill="#5E03CC"/>
<path transform="translate(1622,421)" d="m0 0h4v2h2l3 9-5-2-4-3z" fill="#060213"/>
<path transform="translate(1498,463)" d="m0 0h3l1 5-2 4h-2v2l-4-1 2-7z" fill="#060213"/>
<path transform="translate(1390,730)" d="m0 0h19l2 2-9 1h-10l-2-1z" fill="#09021C"/>
<path transform="translate(1529,708)" d="m0 0h5v2l7 1v1h-21l1-2z" fill="#060213"/>
<path transform="translate(1494,579)" d="m0 0 6 2 1 2-2 5-7-3z" fill="#0C031F"/>
<path transform="translate(949,529)" d="m0 0 1 2h7l1 2-8 1-4 4-4-1 2-4 4-2z" fill="#490B9E"/>
<path transform="translate(535,482)" d="m0 0 2 4-7 5-8 3h-3l1-3 10-4 3-3h2z" fill="#641598"/>
<path transform="translate(1168,449)" d="m0 0 4 1v1l2 1-1 2 2 1 1 3-3 1-2 2-1-4-3-1h2z" fill="#5402BC"/>
<path transform="translate(1127,682)" d="m0 0h2l-2 6-8 2-5 1 5-5z" fill="#0D0329"/>
<path transform="translate(1396,649)" d="m0 0h3l2 5 3 3v5h-3v-2h-2l-3-7z" fill="#060215"/>
<path transform="translate(623,593)" d="m0 0 1 4-3 10-2 5h-2l1-7 3-11z" fill="#150537"/>
<path transform="translate(498,427)" d="m0 0h3l-1 4-4 4h-6v-2h2l1-3z" fill="#870CB1"/>
<path transform="translate(1174,395)" d="m0 0h2v2l-5 2 2 7-1 5-2-4-3-5 1-4z" fill="#4935EF"/>
<path transform="translate(1456,730)" d="m0 0h11v3l-2 1h-10v-3z" fill="#060213"/>
<path transform="translate(582,678)" d="m0 0h1v6l-5 8-3 1-1-4 6-6z" fill="#880CB2"/>
<path transform="translate(986,674)" d="m0 0 3 1-5 6-6 4h-2v-3l6-5z" fill="#10042D"/>
<path transform="translate(1258,601)" d="m0 0 2 3 3 13v7h-1v-6h-3l-1-7z" fill="#240755"/>
<path transform="translate(1114,599)" d="m0 0 1 3 5-2h3l-2 2 3 1-2 4-4 1-4-4z" fill="#4B06A5"/>
<path transform="translate(925,577)" d="m0 0h2l2 4v9l-3 1-1-2z" fill="#120434"/>
<path transform="translate(1653,472)" d="m0 0 3 1 2 4v5l-4-1-3-4v-4z" fill="#080219"/>
<path transform="translate(1354,465)" d="m0 0h2l1 4v13l-2 4-1-8z" fill="#150537"/>
<path transform="translate(956,445)" d="m0 0h2v2l-5 2v2l-7 4-3 4h-2l2-5 11-8z" fill="#100430"/>
<path transform="translate(944,692)" d="m0 0 10 1-5 4-9 3 2-4h2v-2l-2-1z" fill="#5B0BB5"/>
<path transform="translate(1127,634)" d="m0 0 3 1-4 6-9 1 5-6z" fill="#0D032B"/>
<path transform="translate(1465,619)" d="m0 0 2 2-1 7-7 2 3-8z" fill="#2437A7"/>
<path transform="translate(732,616)" d="m0 0h3v4h8l-1 3h-12l-1-3h4z" fill="#0A0223"/>
<path transform="translate(1402,538)" d="m0 0h2v7l-5 5-4-1 2-1v-3h2l1-5z" fill="#080219"/>
<path transform="translate(557,512)" d="m0 0 2 3 2 9-4-1-2 4-2-10 4 1z" fill="#8C0AB6"/>
<path transform="translate(1477,711)" d="m0 0h6v2l4 2v1h-11l-2-3z" fill="#190741"/>
<path transform="translate(1471,595)" d="m0 0h2l-1 7-8 5h-4l1-3 5-2 4-5z" fill="#0F042A"/>
<path transform="translate(829,489)" d="m0 0h2l-1 8-3 10-2 1 1-10z" fill="#0A0222"/>
<path transform="translate(966,439)" d="m0 0 2 1-2 1zm-2 2 2 1-1 3-5 3-3 3-4 2v-4l5-2v-2z" fill="#5508B8"/>
<path transform="translate(734,503)" d="m0 0 3 1 5 11v2h-4l-3-9z" fill="#160637"/>
<path transform="translate(932,428)" d="m0 0h2l1 15h-3l-1-3v-10z" fill="#10042B"/>
<path transform="translate(471,433)" d="m0 0 3 1 2 6-1 4-6-5 1-5z" fill="#110430"/>
<path transform="translate(488,396)" d="m0 0 1 4 5 1-1 4h-4v-2l-6 1 1-4h4z" fill="#700B97"/>
<path transform="translate(1105,518)" d="m0 0 4 3v6l-3 1-2-1-1-7z" fill="#4B03A6"/>
<path transform="translate(940,458)" d="m0 0 3 3 1 2-3 1v2h6l-5 6-2-1-1-3v-9z" fill="#5806BF"/>
<path transform="translate(1587,461)" d="m0 0 5 10-3 6h-2z" fill="#060213"/>
<path transform="translate(719,442)" d="m0 0 4 3v6h-5l-1-2v-6z" fill="#460887"/>
<path transform="translate(955,431)" d="m0 0h2l-2 4-5 5h-2v2h-5l4-5z" fill="#0D032A"/>
<path transform="translate(773,646)" d="m0 0h3l-1 5-3 2-5-1v-3z" fill="#0E032C"/>
<path transform="translate(982,614)" d="m0 0h1l1 10-5 2-1-2h2v-2h-2l2-6z" fill="#260656"/>
<path transform="translate(943,555)" d="m0 0h5l-2 4-5 3h-5v-2l5-1v-3z" fill="#070218"/>
<path transform="translate(962,538)" d="m0 0h3l-1 6-6 5h-3l2-4 2-2h3z" fill="#08021B"/>
<path transform="translate(709,531)" d="m0 0h1l2 7-4 3h-5l1-5 3-1 2 1z" fill="#5A1491"/>
<path transform="translate(520,513)" d="m0 0h2l-2 7-7 1v-3l5-4z" fill="#150537"/>
<path transform="translate(1481,433)" d="m0 0h3l1 13h-4z" fill="#10042F"/>
<path transform="translate(757,654)" d="m0 0h6v7l-2 2-1-4-6 2 1-5z" fill="#3C0E69"/>
<path transform="translate(1163,629)" d="m0 0 5 1-1 5 2 1-1 3-5-1-1-7z" fill="#463DF6"/>
<path transform="translate(578,587)" d="m0 0 4 5-3 5h-3v-4l-2-1z" fill="#9A05C3"/>
<path transform="translate(940,497)" d="m0 0h2v5l5-3 4 1-8 6h-3z" fill="#290B5A"/>
<path transform="translate(127,493)" d="m0 0 2 1-4 10-4 2-4-1 5-3z" fill="#380F6C"/>
<path transform="translate(843,421)" d="m0 0 4 4 1 2v6l-3 2-2-9z" fill="#0C0329"/>
<path transform="translate(1651,730)" d="m0 0 5 1 2 2-7 1h-3l-7-1v-1z" fill="#0C0329"/>
<path transform="translate(967,635)" d="m0 0h2v2h-2l-1 3-11 8v-3l8-7z" fill="#6905CF"/>
<path transform="translate(796,598)" d="m0 0h3l-2 11-2 7h-2l2-12z" fill="#5A1590"/>
<path transform="translate(482,475)" d="m0 0 3 1 1 2v7l-4-1-1-7z" fill="#120433"/>
<path transform="translate(1643,458)" d="m0 0 3 1 4 4v4l-5-1-3-5z" fill="#0E0426"/>
<path transform="translate(700,447)" d="m0 0h3l-1 4h-2l-2 4-4 1 1-5z" fill="#0C0329"/>
<path transform="translate(1592,434)" d="m0 0 2 1 1 5-2 10h-1l-2-11v-3z" fill="#060213"/>
<path transform="translate(1153,429)" d="m0 0h5l1 5-4 1-1 3-2-1v-6z" fill="#4542FB"/>
<path transform="translate(1154,706)" d="m0 0 5 2 1 4-4 2-4-1 1-4z" fill="#7801E2"/>
<path transform="translate(936,668)" d="m0 0 1 4 6-3v5l-3 4-3 1z" fill="#5B05C4"/>
<path transform="translate(962,637)" d="m0 0 3 1-8 5-5 3-4 1 5-5 5-4z" fill="#360D66"/>
<path transform="translate(518,566)" d="m0 0h3l3 7v4l-4-2-3-6z" fill="#110431"/>
<path transform="translate(1176,561)" d="m0 0 4 5 1 4-8-2-1-5z" fill="#453EF5"/>
<path transform="translate(569,543)" d="m0 0h3l5 5v5l-4-2-4-5z" fill="#570B82"/>
<path transform="translate(970,541)" d="m0 0 3 1-6 5h-2l-1 3-4-1 6-7z" fill="#5D08BA"/>
<path transform="translate(548,483)" d="m0 0 4 1 1 7h-4l-3-5v-2z" fill="#530779"/>
<path transform="translate(847,444)" d="m0 0h1v5l-4 10-2 4-1-5 5-13z" fill="#160539"/>
<path transform="translate(528,418)" d="m0 0h2l3 9 3 5 2 5v5l-9-18z" fill="#860DB2"/>
<path transform="translate(954,389)" d="m0 0 3 1-10 8-4-1 9-7z" fill="#10042F"/>
<path transform="translate(760,658)" d="m0 0h1v5l-1 1-9-1 2-1 1-3h2z" fill="#6D09C5"/>
<path transform="translate(1581,611)" d="m0 0 3 3 1 4v7l-2 4-2-15z" fill="#18063E"/>
<path transform="translate(741,612)" d="m0 0 4 1-2 6h-6l1-4z" fill="#7801E2"/>
<path transform="translate(1680,571)" d="m0 0h1v18l-3-1 1-13z" fill="#130533"/>
<path transform="translate(737,544)" d="m0 0h3l-1 7-8-1 1-3z" fill="#0F032D"/>
<path transform="translate(1462,527)" d="m0 0h5l-3 6-8 1z" fill="#16063B"/>
<path transform="translate(535,471)" d="m0 0 3 4-5 4-2 2-4-1 6-7z" fill="#7710A6"/>
<path transform="translate(957,450)" d="m0 0 2 1-4 6-5 4-1-3 6-7z" fill="#08021A"/>
<path transform="translate(1345,417)" d="m0 0 1 4-2 2-4 1v3h-6v-2l5-3z" fill="#140536"/>
<path transform="translate(993,623)" d="m0 0 2 2 2 7v5l-3 1-2-14z" fill="#250558"/>
<path transform="translate(739,626)" d="m0 0h2v2l9 1 1 2-10-1-1 1h-5z" fill="#10042F"/>
<path transform="translate(533,605)" d="m0 0 2 1 2 5v4l-4-1-2-4 1-4z" fill="#120431"/>
<path transform="translate(1133,567)" d="m0 0 2 1-4 4-10 4-4 2v-2l13-8z" fill="#22094F"/>
<path transform="translate(967,435)" d="m0 0h2v2l-2 1-1 3-6 4h-2l2-5z" fill="#230A51"/>
<path transform="translate(926,665)" d="m0 0h2l2 9v4l-4-1z" fill="#280B5B"/>
<path transform="translate(574,663)" d="m0 0 2 2 7 1-1 2h-12l-1-3z" fill="#5D0B8A"/>
<path transform="translate(1666,645)" d="m0 0h2l-1 9h-4l-1-6z" fill="#190741"/>
<path transform="translate(717,555)" d="m0 0 1 2 3 2h-3l-1 3-3-2-7 4-2 1 2-4 2-2 7-3z" fill="#3D0E68"/>
<path transform="translate(984,417)" d="m0 0h2l-1 3-11 7-2-1 7-6z" fill="#0F042E"/>
<path transform="translate(691,410)" d="m0 0h2l-2 4-6 6-2-1 3-6z" fill="#3E0F6C"/>
<path transform="translate(1620,712)" d="m0 0h2l-1 4-5 4-5-1 5-4z" fill="#140532"/>
<path transform="translate(988,710)" d="m0 0h6l3 3v2l-8-1-2-2z" fill="#070217"/>
<path transform="translate(1431,667)" d="m0 0h3v2l-4 1-2 4-5 3 1-4z" fill="#140535"/>
<path transform="translate(1677,645)" d="m0 0 2 1v11l-3-3-1-7z" fill="#1A073E"/>
<path transform="translate(954,561)" d="m0 0 2 1-5 4h-2v-2l-3 1-7-2v-1z" fill="#6403D0"/>
<path transform="translate(950,500)" d="m0 0h1v5l-7 4-1-4z" fill="#5E05C3"/>
<path transform="translate(559,490)" d="m0 0h11l-1 4h-4l-4-1v-2z" fill="#900BB9"/>
<path transform="translate(1406,423)" d="m0 0h2l1 7v5h-4z" fill="#314DE3"/>
<path transform="translate(1168,676)" d="m0 0h3v10l-1 2h-2z" fill="#0C0329"/>
<path transform="translate(977,673)" d="m0 0h2l-1 4-4 2-3 2h-3l1-3 5-3z" fill="#2C0761"/>
<path transform="translate(762,655)" d="m0 0 6 2-4 8-3-1 1-3z" fill="#0B0227"/>
<path transform="translate(613,652)" d="m0 0h1v9h-3-2l-1-4h2l2-4z" fill="#B603B8"/>
<path transform="translate(329,604)" d="m0 0 4 2 5 7-1 3-4-4-4-6z" fill="#19063C"/>
<path transform="translate(1237,576)" d="m0 0h2l5 10-1 4-6-10z" fill="#070219"/>
<path transform="translate(732,525)" d="m0 0 3 1-1 6-7 1 3-7z" fill="#0B0227"/>
<path transform="translate(992,469)" d="m0 0h2v11l-3 1v-11z" fill="#1F0848"/>
<path transform="translate(1432,467)" d="m0 0 2 1-4 8h-7l5-5z" fill="#0B0226"/>
<path transform="translate(694,460)" d="m0 0h3l-1 5h-2v2l-5-1v-3h4z" fill="#410E6C"/>
<path transform="translate(932,454)" d="m0 0 1 4-1 8-3 1v-9z" fill="#0E0329"/>
<path transform="translate(500,410)" d="m0 0 3 1-5 5-5 1 1-3h2l1-3z" fill="#1E0744"/>
<path transform="translate(947,382)" d="m0 0h3l-1 4-7 3-5 3-2-1 5-4 4-2z" fill="#130536"/>
<path transform="translate(453,700)" d="m0 0 16 1 2 4-5-1-1 4v-6h-12z" fill="#64119A"/>
<path transform="translate(398,677)" d="m0 0h5l-1 4-4 3v-3h-5z" fill="#A206BD"/>
<path transform="translate(967,613)" d="m0 0h2l-2 7-2 2h-4l2-4z" fill="#7102D9"/>
<path transform="translate(549,578)" d="m0 0 3 3h3v2l-5 2h-7v-2h5z" fill="#750DA1"/>
<path transform="translate(552,546)" d="m0 0 3 2-5 5-1 4h-3l1-6z" fill="#5F1694"/>
<path transform="translate(973,449)" d="m0 0h3l-1 4-6 4h-2l2-5z" fill="#0C0323"/>
<path transform="translate(514,425)" d="m0 0 3 2h4l-1 5h-5l-1-1z" fill="#710F9F"/>
<path transform="translate(456,398)" d="m0 0 3 1 2 8-4-1-2-3z" fill="#160539"/>
<path transform="translate(505,384)" d="m0 0h4v2l-7 4-4-2-3-3 6 1 3 1z" fill="#160539"/>
<path transform="translate(1487,710)" d="m0 0 3 1 1 4-4 1-3-2-1-3z" fill="#070217"/>
<path transform="translate(986,684)" d="m0 0h2l-1 3-8 6-4-1v-3h5z" fill="#110430"/>
<path transform="translate(1468,678)" d="m0 0 2 1-4 5-6 3v-2l-3-1 7-3z" fill="#1D0844"/>
<path transform="translate(1455,607)" d="m0 0 2 1-5 4-1 2h-6v-2z" fill="#0D0326"/>
<path transform="translate(1560,590)" d="m0 0 5 2v5l-5-1-1-5z" fill="#060215"/>
<path transform="translate(626,568)" d="m0 0h2l-2 14-2 4v-12z" fill="#790DA9"/>
<path transform="translate(350,543)" d="m0 0 4 2 7 10-1 2-10-12z" fill="#25094E"/>
<path transform="translate(979,536)" d="m0 0 2 4 1 4-6 1-1-6 4-1z" fill="#510AAE"/>
<path transform="translate(408,512)" d="m0 0h3l-1 7-4 2 1-8z" fill="#110431"/>
<path transform="translate(841,461)" d="m0 0 1 3-4 10h-2l1-8h2l1-4z" fill="#0D0327"/>
<path transform="translate(703,439)" d="m0 0 3 1 1 3h-3l-1 3-5 1 1-4h3z" fill="#7A02DC"/>
<path transform="translate(1099,433)" d="m0 0h3v9l-4 1z" fill="#0E0327"/>
<path transform="translate(959,415)" d="m0 0h2v2l-12 9 1-4 7-6z" fill="#0E032B"/>
<path transform="translate(957,410)" d="m0 0h2l-1 3-14 7-2-1 3-3 10-4z" fill="#270B59"/>
<path transform="translate(698,383)" d="m0 0h5l1 3h-15v-2z" fill="#420F6E"/>
<path transform="translate(744,672)" d="m0 0h3l1 6-2 2-5-1 2-1z" fill="#8E04CC"/>
<path transform="translate(1635,669)" d="m0 0 5 1 1 4-5 1-2-5z" fill="#060213"/>
<path transform="translate(1456,609)" d="m0 0 1 3-4 5-2 3-3-1 2-4z" fill="#2F52EA"/>
<path transform="translate(955,585)" d="m0 0 4 1-9 6h-3v-2h2l1-3z" fill="#4F0F9F"/>
<path transform="translate(1552,573)" d="m0 0 6 1v2l2 1-2 2-2 1-1 2-3-6z" fill="#2C69FB"/>
<path transform="translate(634,546)" d="m0 0h2l-1 5-3 10-2 1 1-7z" fill="#810DAF"/>
<path transform="translate(1587,540)" d="m0 0 4 2v5l-4 2-1-5z" fill="#060213"/>
<path transform="translate(529,509)" d="m0 0h3l-1 3-5 1-2 4h-2v-3h2l1-4z" fill="#B203B9"/>
<path transform="translate(544,503)" d="m0 0h3v7h-6l2-5z" fill="#18063D"/>
<path transform="translate(976,427)" d="m0 0h3l-1 3-6 4h-5l5-5z" fill="#0B0322"/>
<path transform="translate(583,661)" d="m0 0 2 2-2 3h-7l-1-3z" fill="#0D032A"/>
<path transform="translate(926,637)" d="m0 0 3 1 1 9h-3l-1-2z" fill="#0F042E"/>
<path transform="translate(726,608)" d="m0 0h1l1 5 3 2 2 5h-5l-2-6z" fill="#5D1695"/>
<path transform="translate(348,560)" d="m0 0h2l1 6-6 1-1 2-1-3 2-1 1-4z" fill="#680D93"/>
<path transform="translate(992,540)" d="m0 0h3v9l-4 1z" fill="#3E0788"/>
<path transform="translate(1091,516)" d="m0 0 2 1-1 5h6l-1 3v-2l-5 2h-3l1-6z" fill="#5807C0"/>
<path transform="translate(976,510)" d="m0 0 6 2-1 2h-2v2h-5v-3z" fill="#420896"/>
<path transform="translate(543,469)" d="m0 0 4 1 2 3v4l-4-1z" fill="#170639"/>
<path transform="translate(1508,368)" d="m0 0h7l-1 3h-13l3-2z" fill="#060213"/>
<path transform="translate(508,65)" d="m0 0v3h-2l-2 5-2 3h-2l1-4 4-6z" fill="#380F6C"/>
<path transform="translate(1439,715)" d="m0 0h3l1 6h-7l2-4z" fill="#09021B"/>
<path transform="translate(409,692)" d="m0 0h4v2h-4l-1 4-3 3-4-1 4-2 2-5z" fill="#3B0D64"/>
<path transform="translate(968,618)" d="m0 0 2 3-6 5h-3v-3l6-4z" fill="#0D0329"/>
<path transform="translate(754,600)" d="m0 0h2l1 4 2 2-3 1-1 4-3-1h2v-4l-2-1z" fill="#64179A"/>
<path transform="translate(552,597)" d="m0 0v3l-9 9-1-2 7-8z" fill="#1A063F"/>
<path transform="translate(614,590)" d="m0 0h1l1 8-4 6-3-1h2l1-6z" fill="#800CAB"/>
<path transform="translate(728,526)" d="m0 0h2l-1 5-4 3h-2l1-5z" fill="#6613A2"/>
<path transform="translate(682,514)" d="m0 0h2l2 17-2-2-3-14z" fill="#120431"/>
<path transform="translate(1409,431)" d="m0 0 2 2v7l-4 1v-6h2z" fill="#2D6BFD"/>
<path transform="translate(984,432)" d="m0 0h2v2l-9 6-1-4z" fill="#10042E"/>
<path transform="translate(521,430)" d="m0 0h2l1 4-5 2-4-4z" fill="#200846"/>
<path transform="translate(979,423)" d="m0 0m-1 1m4 0h2l-1 3-4 2v-2l-6 2-2-1 1-2z" fill="#470E99"/>
<path transform="translate(1588,387)" d="m0 0 7 4 1 3-6-1-2-2z" fill="#060214"/>
<path transform="translate(2035)" d="m0 0h3l-2 7-4 1 2-7z" fill="#060213"/>
<path transform="translate(1080,686)" d="m0 0 4 2v2l-2 1-1 3h-2l-1-6z" fill="#5C03CA"/>
<path transform="translate(1168,652)" d="m0 0 3 1 1 8h-3l-2-7z" fill="#0C0326"/>
<path transform="translate(734,629)" d="m0 0 6 2v3 2l-5-1-2-4z" fill="#3F1179"/>
<path transform="translate(743,606)" d="m0 0 5 2v2l-2 1h-6l2-4z" fill="#120432"/>
<path transform="translate(959,603)" d="m0 0h7l-4 3-5 4h-2l1-4 3-1z" fill="#561297"/>
<path transform="translate(552,559)" d="m0 0 3 1-1 4-1 1h-5l2-4z" fill="#9907C1"/>
<path transform="translate(930,534)" d="m0 0h2l-1 6-1 3h-3l1-6z" fill="#11042D"/>
<path transform="translate(524,524)" d="m0 0h2l-2 4-4 4-4-1 5-5z" fill="#1A0740"/>
<path transform="translate(528,504)" d="m0 0 3 2-2 4h-7v-2l-2-1 8-1z" fill="#6B179A"/>
<path transform="translate(1666,476)" d="m0 0h2l2 5v8l-2-1z" fill="#1B0741"/>
<path transform="translate(929,473)" d="m0 0h1l1 12h-4l1-11z" fill="#0D0325"/>
<path transform="translate(954,440)" d="m0 0h2l1 3-5 3h-3v2l-3-1 4-4z" fill="#100430"/>
<path transform="translate(404,670)" d="m0 0 3 1-3 5h-6l4-5z" fill="#100430"/>
<path transform="translate(983,663)" d="m0 0 5 1v3l-7 1z" fill="#0C0329"/>
<path transform="translate(1119,641)" d="m0 0h6l-1 3-10 1 2-3z" fill="#5707BC"/>
<path transform="translate(949,612)" d="m0 0 3 1-5 4-4 2-5 2 2-3z" fill="#4F1098"/>
<path transform="translate(745,603)" d="m0 0 2 2 4 1 1 4-6 1 2-1-5-5h2z" fill="#5D1692"/>
<path transform="translate(1415,601)" d="m0 0h2v11l-2 1-1-8z" fill="#150636"/>
<path transform="translate(799,587)" d="m0 0 3 1-1 6-3 6-1-4z" fill="#2A0A55"/>
<path transform="translate(1461,565)" d="m0 0 4 1-9 7-2-1 5-6z" fill="#1E0848"/>
<path transform="translate(689,544)" d="m0 0 2 3 1 8-4-4v-6z" fill="#0B0225"/>
<path transform="translate(959,534)" d="m0 0 2 1 1 3-7 3-1-4z" fill="#520DAB"/>
<path transform="translate(1410,523)" d="m0 0 1 3h2l-2 4-4-1 1-5z" fill="#2D6BFD"/>
<path transform="translate(1169,506)" d="m0 0 2 1-1 5-4 1v-6z" fill="#130534"/>
<path transform="translate(965,492)" d="m0 0 5 2-5 5-3-4z" fill="#2D0C5F"/>
<path transform="translate(957,442)" d="m0 0 2 1-3 3-7 4v-4z" fill="#5309B2"/>
<path transform="translate(986,432)" d="m0 0h1v6l-1 2h-5l3-6h2z" fill="#5807C0"/>
<path transform="translate(562,690)" d="m0 0 3 1 4 9v2l-3-1-4-9z" fill="#160538"/>
<path transform="translate(1406,685)" d="m0 0 2 4 1 3-2 6h-2z" fill="#2D68FB"/>
<path transform="translate(405,682)" d="m0 0h5v3l-9 1-1-3z" fill="#7611A4"/>
<path transform="translate(1415,671)" d="m0 0h1v9l-4-2 1-5z" fill="#180637"/>
<path transform="translate(948,666)" d="m0 0h2l-1 3h-2v2l-5 2 1-5z" fill="#6E02D9"/>
<path transform="translate(559,615)" d="m0 0 3 1-7 6-5 4 1-4 5-4h2z" fill="#1E0845"/>
<path transform="translate(1469,610)" d="m0 0h3l-2 4-3 3h-3l2-4z" fill="#150536"/>
<path transform="translate(958,555)" d="m0 0h2l-1 4-9 2 5-5z" fill="#060213"/>
<path transform="translate(952,553)" d="m0 0 2 3-9 6-4-1 10-6z" fill="#461390"/>
<path transform="translate(549,532)" d="m0 0h2l3 8-1 3v-2h-3z" fill="#160538"/>
<path transform="translate(1353,510)" d="m0 0h2v7l-4 1-4-3 5-1z" fill="#0B031E"/>
<path transform="translate(1430,485)" d="m0 0h7l-1 2h-2l-1 3-5-1z" fill="#334ADC"/>
<path transform="translate(949,472)" d="m0 0m-1 1m-2 1 2 1-3 4-3 3-3 1-1-3 5-3z" fill="#5509B8"/>
<path transform="translate(966,464)" d="m0 0 3 1-7 6h-3l1-3z" fill="#090221"/>
<path transform="translate(1266,437)" d="m0 0 5 1-2 2v3l-5-1 1-4z" fill="#5A04C5"/>
<path transform="translate(944,428)" d="m0 0h2v6l-4 2v-6z" fill="#0D032B"/>
<path transform="translate(1163,417)" d="m0 0 4 1 1 5h-4z" fill="#0B0225"/>
</svg>
